G04 EAGLE Gerber X2 export*
%TF.Part,Single*%
%TF.FileFunction,Copper,L2,Bot,Mixed*%
%TF.FilePolarity,Positive*%
%TF.GenerationSoftware,Autodesk,EAGLE,8.6.0*%
%TF.CreationDate,2018-09-01T13:25:50Z*%
G75*
%MOMM*%
%FSLAX34Y34*%
%LPD*%
%AMOC8*
5,1,8,0,0,1.08239X$1,22.5*%
G01*
%ADD10C,1.108000*%
%ADD11C,1.208000*%
%ADD12C,1.500000*%
%ADD13C,0.756400*%
%ADD14C,0.304800*%
%ADD15C,0.152400*%


D10*
X238600Y19860D02*
X238600Y30940D01*
X155100Y30940D02*
X155100Y19860D01*
D11*
X174600Y49360D02*
X174600Y61440D01*
X219100Y61440D02*
X219100Y49360D01*
D12*
X323850Y19050D03*
X292100Y120650D03*
D13*
X190500Y279400D03*
D14*
X177800Y292100D01*
X88900Y292100D01*
D13*
X88900Y292100D03*
X88900Y158410D03*
D14*
X102530Y144780D01*
X102870Y144780D01*
D13*
X102870Y144780D03*
D12*
X19050Y44450D03*
X292100Y171450D03*
X292100Y196850D03*
X323850Y69850D03*
X292100Y146050D03*
D13*
X190500Y76200D03*
D15*
X110490Y156210D01*
X110490Y194310D01*
D13*
X110490Y194310D03*
X190500Y85288D03*
D15*
X186888Y88900D01*
X182880Y88900D01*
X116558Y155222D01*
X116558Y187526D01*
D13*
X116558Y187526D03*
D12*
X323850Y44450D03*
X19050Y19050D03*
X323850Y247650D03*
D13*
X205740Y228600D03*
D15*
X304800Y228600D01*
X323850Y247650D01*
D12*
X323850Y273050D03*
D13*
X207010Y275590D03*
D15*
X321310Y275590D01*
X323850Y273050D01*
D12*
X323850Y298450D03*
X323850Y323850D03*
X298450Y323850D03*
X273050Y323850D03*
X247650Y323850D03*
X222250Y323850D03*
X196850Y323850D03*
X171450Y323850D03*
X146050Y323850D03*
X120650Y323850D03*
X95250Y323850D03*
X69850Y323850D03*
X19050Y323850D03*
X44450Y323850D03*
X19050Y273050D03*
X19050Y69850D03*
X19050Y95250D03*
X19050Y120650D03*
X19050Y146050D03*
X19050Y171450D03*
X19050Y196850D03*
X19050Y222250D03*
X19050Y247650D03*
X323850Y222250D03*
D13*
X214630Y220416D03*
D15*
X322016Y220416D01*
X323850Y222250D01*
D12*
X323850Y196850D03*
D13*
X205740Y214348D03*
D15*
X306352Y214348D01*
X323850Y196850D01*
D12*
X323850Y171450D03*
D13*
X158270Y165085D03*
D15*
X269255Y165085D01*
X274320Y160020D01*
X312420Y160020D01*
X323850Y171450D01*
D12*
X323850Y146050D03*
D13*
X152400Y149860D03*
D15*
X312928Y156972D02*
X323850Y146050D01*
X312928Y156972D02*
X275590Y156972D01*
X268478Y149860D01*
X152400Y149860D01*
D12*
X323850Y120650D03*
D13*
X152400Y139700D03*
D15*
X157480Y134620D02*
X309880Y134620D01*
X323850Y120650D01*
X157480Y134620D02*
X152400Y139700D01*
D12*
X323850Y95250D03*
D13*
X152400Y129540D03*
D15*
X280670Y129540D01*
X281940Y130810D01*
X303530Y130810D01*
X312420Y106680D02*
X323850Y95250D01*
X312420Y121920D02*
X303530Y130810D01*
X312420Y121920D02*
X312420Y106680D01*
D12*
X19050Y298450D03*
M02*
