M48
;GenerationSoftware,Autodesk,EAGLE,8.6.0*%
;CreationDate,2018-09-01T13:25:50Z*%
FMAT,2
ICI,OFF
METRIC,TZ,000.000
T4C0.350
T3C0.600
T2C0.700
T1C1.000
%
G90
M71
T1
X32385Y1905
X29210Y12065
X1905Y19685
X1905Y22225
X1905Y24765
X32385Y22225
X1905Y4445
X29210Y17145
X29210Y19685
X32385Y6985
X29210Y14605
X32385Y19685
X32385Y17145
X32385Y14605
X32385Y12065
X32385Y4445
X1905Y1905
X32385Y24765
X32385Y9525
X32385Y27305
X1905Y29845
X32385Y29845
X32385Y32385
X29845Y32385
X27305Y32385
X24765Y32385
X22225Y32385
X19685Y32385
X17145Y32385
X14605Y32385
X12065Y32385
X9525Y32385
X6985Y32385
X1905Y32385
X4445Y32385
X1905Y27305
X1905Y6985
X1905Y9525
X1905Y12065
X1905Y14605
X1905Y17145
T2
X21910Y5540
X17460Y5540
T3
X23860Y2540
X15510Y2540
T4
X19050Y27940
X8890Y29210
X8890Y15841
X10287Y14478
X19050Y7620
X11049Y19431
X19050Y8529
X11656Y18753
X20574Y22860
X20701Y27559
X15240Y14986
X21463Y22042
X15827Y16509
X15240Y12954
X20574Y21435
X15240Y13970
M30