G04 EAGLE Gerber X2 export*
%TF.Part,Single*%
%TF.FileFunction,Legend,Bot,1*%
%TF.FilePolarity,Positive*%
%TF.GenerationSoftware,Autodesk,EAGLE,8.6.0*%
%TF.CreationDate,2018-09-01T13:25:50Z*%
G75*
%MOMM*%
%FSLAX34Y34*%
%LPD*%
%AMOC8*
5,1,8,0,0,1.08239X$1,22.5*%
G01*
%ADD10C,0.101600*%
%ADD11C,0.050800*%


D10*
X70019Y17752D02*
X62230Y17752D01*
X66125Y21646D02*
X66125Y13857D01*
X57178Y13208D02*
X53284Y13208D01*
X53185Y13210D01*
X53085Y13216D01*
X52986Y13225D01*
X52888Y13238D01*
X52790Y13255D01*
X52692Y13276D01*
X52596Y13301D01*
X52501Y13329D01*
X52407Y13361D01*
X52314Y13396D01*
X52222Y13435D01*
X52132Y13478D01*
X52044Y13523D01*
X51957Y13573D01*
X51873Y13625D01*
X51790Y13681D01*
X51710Y13739D01*
X51632Y13801D01*
X51557Y13866D01*
X51484Y13934D01*
X51414Y14004D01*
X51346Y14077D01*
X51281Y14152D01*
X51219Y14230D01*
X51161Y14310D01*
X51105Y14393D01*
X51053Y14477D01*
X51003Y14564D01*
X50958Y14652D01*
X50915Y14742D01*
X50876Y14834D01*
X50841Y14927D01*
X50809Y15021D01*
X50781Y15116D01*
X50756Y15212D01*
X50735Y15310D01*
X50718Y15408D01*
X50705Y15506D01*
X50696Y15605D01*
X50690Y15705D01*
X50688Y15804D01*
X50687Y15804D02*
X50687Y17103D01*
X50688Y17103D02*
X50690Y17202D01*
X50696Y17302D01*
X50705Y17401D01*
X50718Y17499D01*
X50735Y17597D01*
X50756Y17695D01*
X50781Y17791D01*
X50809Y17886D01*
X50841Y17980D01*
X50876Y18073D01*
X50915Y18165D01*
X50958Y18255D01*
X51003Y18343D01*
X51053Y18430D01*
X51105Y18514D01*
X51161Y18597D01*
X51219Y18677D01*
X51281Y18755D01*
X51346Y18830D01*
X51414Y18903D01*
X51484Y18973D01*
X51557Y19041D01*
X51632Y19106D01*
X51710Y19168D01*
X51790Y19226D01*
X51873Y19282D01*
X51957Y19334D01*
X52044Y19384D01*
X52132Y19429D01*
X52222Y19472D01*
X52314Y19511D01*
X52407Y19546D01*
X52501Y19578D01*
X52596Y19606D01*
X52692Y19631D01*
X52790Y19652D01*
X52888Y19669D01*
X52986Y19682D01*
X53085Y19691D01*
X53185Y19697D01*
X53284Y19699D01*
X57178Y19699D01*
X57178Y24892D01*
X50687Y24892D01*
X46397Y24892D02*
X42503Y13208D01*
X38608Y24892D01*
X73011Y43152D02*
X80800Y43152D01*
X76906Y47046D02*
X76906Y39257D01*
X67959Y38608D02*
X64714Y38608D01*
X64601Y38610D01*
X64488Y38616D01*
X64375Y38626D01*
X64262Y38640D01*
X64150Y38657D01*
X64039Y38679D01*
X63929Y38704D01*
X63819Y38734D01*
X63711Y38767D01*
X63604Y38804D01*
X63498Y38844D01*
X63394Y38889D01*
X63291Y38937D01*
X63190Y38988D01*
X63091Y39043D01*
X62994Y39101D01*
X62899Y39163D01*
X62806Y39228D01*
X62716Y39296D01*
X62628Y39367D01*
X62542Y39442D01*
X62459Y39519D01*
X62379Y39599D01*
X62302Y39682D01*
X62227Y39768D01*
X62156Y39856D01*
X62088Y39946D01*
X62023Y40039D01*
X61961Y40134D01*
X61903Y40231D01*
X61848Y40330D01*
X61797Y40431D01*
X61749Y40534D01*
X61704Y40638D01*
X61664Y40744D01*
X61627Y40851D01*
X61594Y40959D01*
X61564Y41069D01*
X61539Y41179D01*
X61517Y41290D01*
X61500Y41402D01*
X61486Y41515D01*
X61476Y41628D01*
X61470Y41741D01*
X61468Y41854D01*
X61470Y41967D01*
X61476Y42080D01*
X61486Y42193D01*
X61500Y42306D01*
X61517Y42418D01*
X61539Y42529D01*
X61564Y42639D01*
X61594Y42749D01*
X61627Y42857D01*
X61664Y42964D01*
X61704Y43070D01*
X61749Y43174D01*
X61797Y43277D01*
X61848Y43378D01*
X61903Y43477D01*
X61961Y43574D01*
X62023Y43669D01*
X62088Y43762D01*
X62156Y43852D01*
X62227Y43940D01*
X62302Y44026D01*
X62379Y44109D01*
X62459Y44189D01*
X62542Y44266D01*
X62628Y44341D01*
X62716Y44412D01*
X62806Y44480D01*
X62899Y44545D01*
X62994Y44607D01*
X63091Y44665D01*
X63190Y44720D01*
X63291Y44771D01*
X63394Y44819D01*
X63498Y44864D01*
X63604Y44904D01*
X63711Y44941D01*
X63819Y44974D01*
X63929Y45004D01*
X64039Y45029D01*
X64150Y45051D01*
X64262Y45068D01*
X64375Y45082D01*
X64488Y45092D01*
X64601Y45098D01*
X64714Y45100D01*
X64064Y50292D02*
X67959Y50292D01*
X64064Y50292D02*
X63963Y50290D01*
X63863Y50284D01*
X63763Y50274D01*
X63663Y50261D01*
X63564Y50243D01*
X63465Y50222D01*
X63368Y50197D01*
X63271Y50168D01*
X63176Y50135D01*
X63082Y50099D01*
X62990Y50059D01*
X62899Y50016D01*
X62810Y49969D01*
X62723Y49919D01*
X62637Y49865D01*
X62554Y49808D01*
X62474Y49748D01*
X62395Y49685D01*
X62319Y49618D01*
X62246Y49549D01*
X62176Y49477D01*
X62108Y49403D01*
X62043Y49326D01*
X61982Y49246D01*
X61923Y49164D01*
X61868Y49080D01*
X61816Y48994D01*
X61767Y48906D01*
X61722Y48816D01*
X61680Y48724D01*
X61642Y48631D01*
X61608Y48536D01*
X61577Y48441D01*
X61550Y48344D01*
X61527Y48246D01*
X61507Y48147D01*
X61492Y48047D01*
X61480Y47947D01*
X61472Y47847D01*
X61468Y47746D01*
X61468Y47646D01*
X61472Y47545D01*
X61480Y47445D01*
X61492Y47345D01*
X61507Y47245D01*
X61527Y47146D01*
X61550Y47048D01*
X61577Y46951D01*
X61608Y46856D01*
X61642Y46761D01*
X61680Y46668D01*
X61722Y46576D01*
X61767Y46486D01*
X61816Y46398D01*
X61868Y46312D01*
X61923Y46228D01*
X61982Y46146D01*
X62043Y46066D01*
X62108Y45989D01*
X62176Y45915D01*
X62246Y45843D01*
X62319Y45774D01*
X62395Y45707D01*
X62474Y45644D01*
X62554Y45584D01*
X62637Y45527D01*
X62723Y45473D01*
X62810Y45423D01*
X62899Y45376D01*
X62990Y45333D01*
X63082Y45293D01*
X63176Y45257D01*
X63271Y45224D01*
X63368Y45195D01*
X63465Y45170D01*
X63564Y45149D01*
X63663Y45131D01*
X63763Y45118D01*
X63863Y45108D01*
X63963Y45102D01*
X64064Y45100D01*
X64064Y45099D02*
X66661Y45099D01*
X57178Y50292D02*
X53284Y38608D01*
X49389Y50292D01*
X45099Y38608D02*
X41854Y38608D01*
X41741Y38610D01*
X41628Y38616D01*
X41515Y38626D01*
X41402Y38640D01*
X41290Y38657D01*
X41179Y38679D01*
X41069Y38704D01*
X40959Y38734D01*
X40851Y38767D01*
X40744Y38804D01*
X40638Y38844D01*
X40534Y38889D01*
X40431Y38937D01*
X40330Y38988D01*
X40231Y39043D01*
X40134Y39101D01*
X40039Y39163D01*
X39946Y39228D01*
X39856Y39296D01*
X39768Y39367D01*
X39682Y39442D01*
X39599Y39519D01*
X39519Y39599D01*
X39442Y39682D01*
X39367Y39768D01*
X39296Y39856D01*
X39228Y39946D01*
X39163Y40039D01*
X39101Y40134D01*
X39043Y40231D01*
X38988Y40330D01*
X38937Y40431D01*
X38889Y40534D01*
X38844Y40638D01*
X38804Y40744D01*
X38767Y40851D01*
X38734Y40959D01*
X38704Y41069D01*
X38679Y41179D01*
X38657Y41290D01*
X38640Y41402D01*
X38626Y41515D01*
X38616Y41628D01*
X38610Y41741D01*
X38608Y41854D01*
X38610Y41967D01*
X38616Y42080D01*
X38626Y42193D01*
X38640Y42306D01*
X38657Y42418D01*
X38679Y42529D01*
X38704Y42639D01*
X38734Y42749D01*
X38767Y42857D01*
X38804Y42964D01*
X38844Y43070D01*
X38889Y43174D01*
X38937Y43277D01*
X38988Y43378D01*
X39043Y43477D01*
X39101Y43574D01*
X39163Y43669D01*
X39228Y43762D01*
X39296Y43852D01*
X39367Y43940D01*
X39442Y44026D01*
X39519Y44109D01*
X39599Y44189D01*
X39682Y44266D01*
X39768Y44341D01*
X39856Y44412D01*
X39946Y44480D01*
X40039Y44545D01*
X40134Y44607D01*
X40231Y44665D01*
X40330Y44720D01*
X40431Y44771D01*
X40534Y44819D01*
X40638Y44864D01*
X40744Y44904D01*
X40851Y44941D01*
X40959Y44974D01*
X41069Y45004D01*
X41179Y45029D01*
X41290Y45051D01*
X41402Y45068D01*
X41515Y45082D01*
X41628Y45092D01*
X41741Y45098D01*
X41854Y45100D01*
X41204Y50292D02*
X45099Y50292D01*
X41204Y50292D02*
X41103Y50290D01*
X41003Y50284D01*
X40903Y50274D01*
X40803Y50261D01*
X40704Y50243D01*
X40605Y50222D01*
X40508Y50197D01*
X40411Y50168D01*
X40316Y50135D01*
X40222Y50099D01*
X40130Y50059D01*
X40039Y50016D01*
X39950Y49969D01*
X39863Y49919D01*
X39777Y49865D01*
X39694Y49808D01*
X39614Y49748D01*
X39535Y49685D01*
X39459Y49618D01*
X39386Y49549D01*
X39316Y49477D01*
X39248Y49403D01*
X39183Y49326D01*
X39122Y49246D01*
X39063Y49164D01*
X39008Y49080D01*
X38956Y48994D01*
X38907Y48906D01*
X38862Y48816D01*
X38820Y48724D01*
X38782Y48631D01*
X38748Y48536D01*
X38717Y48441D01*
X38690Y48344D01*
X38667Y48246D01*
X38647Y48147D01*
X38632Y48047D01*
X38620Y47947D01*
X38612Y47847D01*
X38608Y47746D01*
X38608Y47646D01*
X38612Y47545D01*
X38620Y47445D01*
X38632Y47345D01*
X38647Y47245D01*
X38667Y47146D01*
X38690Y47048D01*
X38717Y46951D01*
X38748Y46856D01*
X38782Y46761D01*
X38820Y46668D01*
X38862Y46576D01*
X38907Y46486D01*
X38956Y46398D01*
X39008Y46312D01*
X39063Y46228D01*
X39122Y46146D01*
X39183Y46066D01*
X39248Y45989D01*
X39316Y45915D01*
X39386Y45843D01*
X39459Y45774D01*
X39535Y45707D01*
X39614Y45644D01*
X39694Y45584D01*
X39777Y45527D01*
X39863Y45473D01*
X39950Y45423D01*
X40039Y45376D01*
X40130Y45333D01*
X40222Y45293D01*
X40316Y45257D01*
X40411Y45224D01*
X40508Y45195D01*
X40605Y45170D01*
X40704Y45149D01*
X40803Y45131D01*
X40903Y45118D01*
X41003Y45108D01*
X41103Y45102D01*
X41204Y45100D01*
X41204Y45099D02*
X43801Y45099D01*
X297801Y19699D02*
X299748Y19699D01*
X297801Y19699D02*
X297801Y13208D01*
X301696Y13208D01*
X301795Y13210D01*
X301895Y13216D01*
X301994Y13225D01*
X302092Y13238D01*
X302190Y13255D01*
X302288Y13276D01*
X302384Y13301D01*
X302479Y13329D01*
X302573Y13361D01*
X302666Y13396D01*
X302758Y13435D01*
X302848Y13478D01*
X302936Y13523D01*
X303023Y13573D01*
X303107Y13625D01*
X303190Y13681D01*
X303270Y13739D01*
X303348Y13801D01*
X303423Y13866D01*
X303496Y13934D01*
X303566Y14004D01*
X303634Y14077D01*
X303699Y14152D01*
X303761Y14230D01*
X303819Y14310D01*
X303875Y14393D01*
X303927Y14477D01*
X303977Y14564D01*
X304022Y14652D01*
X304065Y14742D01*
X304104Y14834D01*
X304139Y14927D01*
X304171Y15021D01*
X304199Y15116D01*
X304224Y15212D01*
X304245Y15310D01*
X304262Y15408D01*
X304275Y15506D01*
X304284Y15605D01*
X304290Y15705D01*
X304292Y15804D01*
X304292Y22296D01*
X304290Y22395D01*
X304284Y22495D01*
X304275Y22594D01*
X304262Y22692D01*
X304245Y22790D01*
X304224Y22888D01*
X304199Y22984D01*
X304171Y23079D01*
X304139Y23173D01*
X304104Y23266D01*
X304065Y23358D01*
X304022Y23448D01*
X303977Y23536D01*
X303927Y23623D01*
X303875Y23707D01*
X303819Y23790D01*
X303761Y23870D01*
X303699Y23948D01*
X303634Y24023D01*
X303566Y24096D01*
X303496Y24166D01*
X303423Y24234D01*
X303348Y24299D01*
X303270Y24361D01*
X303190Y24419D01*
X303107Y24475D01*
X303023Y24527D01*
X302936Y24577D01*
X302848Y24622D01*
X302758Y24665D01*
X302666Y24704D01*
X302573Y24739D01*
X302479Y24771D01*
X302384Y24799D01*
X302288Y24824D01*
X302190Y24845D01*
X302092Y24862D01*
X301994Y24875D01*
X301895Y24884D01*
X301795Y24890D01*
X301696Y24892D01*
X297801Y24892D01*
X292100Y24892D02*
X292100Y13208D01*
X285609Y13208D02*
X292100Y24892D01*
X285609Y24892D02*
X285609Y13208D01*
X279908Y13208D02*
X279908Y24892D01*
X276663Y24892D01*
X276550Y24890D01*
X276437Y24884D01*
X276324Y24874D01*
X276211Y24860D01*
X276099Y24843D01*
X275988Y24821D01*
X275878Y24796D01*
X275768Y24766D01*
X275660Y24733D01*
X275553Y24696D01*
X275447Y24656D01*
X275343Y24611D01*
X275240Y24563D01*
X275139Y24512D01*
X275040Y24457D01*
X274943Y24399D01*
X274848Y24337D01*
X274755Y24272D01*
X274665Y24204D01*
X274577Y24133D01*
X274491Y24058D01*
X274408Y23981D01*
X274328Y23901D01*
X274251Y23818D01*
X274176Y23732D01*
X274105Y23644D01*
X274037Y23554D01*
X273972Y23461D01*
X273910Y23366D01*
X273852Y23269D01*
X273797Y23170D01*
X273746Y23069D01*
X273698Y22966D01*
X273653Y22862D01*
X273613Y22756D01*
X273576Y22649D01*
X273543Y22541D01*
X273513Y22431D01*
X273488Y22321D01*
X273466Y22210D01*
X273449Y22098D01*
X273435Y21985D01*
X273425Y21872D01*
X273419Y21759D01*
X273417Y21646D01*
X273417Y16454D01*
X273419Y16341D01*
X273425Y16228D01*
X273435Y16115D01*
X273449Y16002D01*
X273466Y15890D01*
X273488Y15779D01*
X273513Y15669D01*
X273543Y15559D01*
X273576Y15451D01*
X273613Y15344D01*
X273653Y15238D01*
X273698Y15134D01*
X273746Y15031D01*
X273797Y14930D01*
X273852Y14831D01*
X273910Y14734D01*
X273972Y14639D01*
X274037Y14546D01*
X274105Y14456D01*
X274176Y14368D01*
X274251Y14282D01*
X274328Y14199D01*
X274408Y14119D01*
X274491Y14042D01*
X274577Y13967D01*
X274665Y13896D01*
X274755Y13828D01*
X274848Y13763D01*
X274943Y13701D01*
X275040Y13643D01*
X275139Y13588D01*
X275240Y13537D01*
X275343Y13489D01*
X275447Y13444D01*
X275553Y13404D01*
X275660Y13367D01*
X275768Y13334D01*
X275878Y13304D01*
X275988Y13279D01*
X276099Y13257D01*
X276211Y13240D01*
X276324Y13226D01*
X276437Y13216D01*
X276550Y13210D01*
X276663Y13208D01*
X279908Y13208D01*
X304292Y38608D02*
X304292Y50292D01*
X297801Y38608D01*
X297801Y50292D01*
X289918Y38608D02*
X287321Y38608D01*
X289918Y38608D02*
X290017Y38610D01*
X290117Y38616D01*
X290216Y38625D01*
X290314Y38638D01*
X290412Y38655D01*
X290510Y38676D01*
X290606Y38701D01*
X290701Y38729D01*
X290795Y38761D01*
X290888Y38796D01*
X290980Y38835D01*
X291070Y38878D01*
X291158Y38923D01*
X291245Y38973D01*
X291329Y39025D01*
X291412Y39081D01*
X291492Y39139D01*
X291570Y39201D01*
X291645Y39266D01*
X291718Y39334D01*
X291788Y39404D01*
X291856Y39477D01*
X291921Y39552D01*
X291983Y39630D01*
X292041Y39710D01*
X292097Y39793D01*
X292149Y39877D01*
X292199Y39964D01*
X292244Y40052D01*
X292287Y40142D01*
X292326Y40234D01*
X292361Y40327D01*
X292393Y40421D01*
X292421Y40516D01*
X292446Y40612D01*
X292467Y40710D01*
X292484Y40808D01*
X292497Y40906D01*
X292506Y41005D01*
X292512Y41105D01*
X292514Y41204D01*
X292514Y47696D01*
X292512Y47795D01*
X292506Y47895D01*
X292497Y47994D01*
X292484Y48092D01*
X292467Y48190D01*
X292446Y48288D01*
X292421Y48384D01*
X292393Y48479D01*
X292361Y48573D01*
X292326Y48666D01*
X292287Y48758D01*
X292244Y48848D01*
X292199Y48936D01*
X292149Y49023D01*
X292097Y49107D01*
X292041Y49190D01*
X291983Y49270D01*
X291921Y49348D01*
X291856Y49423D01*
X291788Y49496D01*
X291718Y49566D01*
X291645Y49634D01*
X291570Y49699D01*
X291492Y49761D01*
X291412Y49819D01*
X291329Y49875D01*
X291245Y49927D01*
X291158Y49977D01*
X291070Y50022D01*
X290980Y50065D01*
X290888Y50104D01*
X290795Y50139D01*
X290701Y50171D01*
X290606Y50199D01*
X290510Y50224D01*
X290412Y50245D01*
X290314Y50262D01*
X290216Y50275D01*
X290117Y50284D01*
X290017Y50290D01*
X289918Y50292D01*
X287321Y50292D01*
X46397Y64008D02*
X38608Y75692D01*
X46397Y75692D02*
X38608Y64008D01*
X46397Y89408D02*
X38608Y101092D01*
X46397Y101092D02*
X38608Y89408D01*
X46397Y114808D02*
X38608Y126492D01*
X46397Y126492D02*
X38608Y114808D01*
X46397Y140208D02*
X38608Y151892D01*
X46397Y151892D02*
X38608Y140208D01*
X46397Y165608D02*
X38608Y177292D01*
X46397Y177292D02*
X38608Y165608D01*
X46397Y191008D02*
X38608Y202692D01*
X46397Y202692D02*
X38608Y191008D01*
X46397Y216408D02*
X38608Y228092D01*
X46397Y228092D02*
X38608Y216408D01*
X46397Y241808D02*
X38608Y253492D01*
X46397Y253492D02*
X38608Y241808D01*
X46397Y267208D02*
X38608Y278892D01*
X46397Y278892D02*
X38608Y267208D01*
X296503Y75692D02*
X304292Y64008D01*
X296503Y64008D02*
X304292Y75692D01*
X304292Y89408D02*
X296503Y101092D01*
X304292Y101092D02*
X296503Y89408D01*
X304292Y216408D02*
X296503Y228092D01*
X304292Y228092D02*
X296503Y216408D01*
X304292Y241808D02*
X296503Y253492D01*
X304292Y253492D02*
X296503Y241808D01*
X304292Y267208D02*
X296503Y278892D01*
X304292Y278892D02*
X296503Y267208D01*
X264753Y202692D02*
X272542Y191008D01*
X264753Y191008D02*
X272542Y202692D01*
X264753Y177292D02*
X272542Y165608D01*
X264753Y165608D02*
X272542Y177292D01*
X264753Y151892D02*
X272542Y140208D01*
X264753Y140208D02*
X272542Y151892D01*
X264753Y126492D02*
X272542Y114808D01*
X264753Y114808D02*
X272542Y126492D01*
D11*
X50546Y306324D02*
X50546Y310896D01*
X49276Y310896D01*
X49206Y310894D01*
X49136Y310888D01*
X49067Y310879D01*
X48998Y310865D01*
X48930Y310848D01*
X48864Y310827D01*
X48798Y310803D01*
X48734Y310775D01*
X48672Y310743D01*
X48611Y310708D01*
X48552Y310670D01*
X48496Y310628D01*
X48442Y310584D01*
X48390Y310536D01*
X48342Y310486D01*
X48296Y310433D01*
X48253Y310378D01*
X48213Y310321D01*
X48176Y310261D01*
X48143Y310199D01*
X48113Y310136D01*
X48087Y310071D01*
X48064Y310005D01*
X48045Y309938D01*
X48030Y309869D01*
X48018Y309800D01*
X48010Y309731D01*
X48006Y309661D01*
X48006Y309591D01*
X48010Y309521D01*
X48018Y309452D01*
X48030Y309383D01*
X48045Y309314D01*
X48064Y309247D01*
X48087Y309181D01*
X48113Y309116D01*
X48143Y309053D01*
X48176Y308991D01*
X48213Y308931D01*
X48253Y308874D01*
X48296Y308819D01*
X48342Y308766D01*
X48390Y308716D01*
X48442Y308668D01*
X48496Y308624D01*
X48552Y308582D01*
X48611Y308544D01*
X48672Y308509D01*
X48734Y308477D01*
X48798Y308449D01*
X48864Y308425D01*
X48930Y308404D01*
X48998Y308387D01*
X49067Y308373D01*
X49136Y308364D01*
X49206Y308358D01*
X49276Y308356D01*
X50546Y308356D01*
X46457Y306324D02*
X44933Y310896D01*
X43409Y306324D01*
X43790Y307467D02*
X46076Y307467D01*
X41631Y309880D02*
X40361Y310896D01*
X40361Y306324D01*
X41631Y306324D02*
X39091Y306324D01*
X37059Y306324D02*
X35789Y306324D01*
X35719Y306326D01*
X35649Y306332D01*
X35580Y306341D01*
X35511Y306355D01*
X35443Y306372D01*
X35377Y306393D01*
X35311Y306417D01*
X35247Y306445D01*
X35185Y306477D01*
X35124Y306512D01*
X35065Y306550D01*
X35009Y306592D01*
X34955Y306636D01*
X34903Y306684D01*
X34855Y306734D01*
X34809Y306787D01*
X34766Y306842D01*
X34726Y306899D01*
X34689Y306959D01*
X34656Y307021D01*
X34626Y307084D01*
X34600Y307149D01*
X34577Y307215D01*
X34558Y307282D01*
X34543Y307351D01*
X34531Y307420D01*
X34523Y307489D01*
X34519Y307559D01*
X34519Y307629D01*
X34523Y307699D01*
X34531Y307768D01*
X34543Y307837D01*
X34558Y307906D01*
X34577Y307973D01*
X34600Y308039D01*
X34626Y308104D01*
X34656Y308167D01*
X34689Y308229D01*
X34726Y308289D01*
X34766Y308346D01*
X34809Y308401D01*
X34855Y308454D01*
X34903Y308504D01*
X34955Y308552D01*
X35009Y308596D01*
X35065Y308638D01*
X35124Y308676D01*
X35185Y308711D01*
X35247Y308743D01*
X35311Y308771D01*
X35377Y308795D01*
X35443Y308816D01*
X35511Y308833D01*
X35580Y308847D01*
X35649Y308856D01*
X35719Y308862D01*
X35789Y308864D01*
X35535Y310896D02*
X37059Y310896D01*
X35535Y310896D02*
X35472Y310894D01*
X35410Y310888D01*
X35348Y310879D01*
X35287Y310865D01*
X35227Y310848D01*
X35168Y310827D01*
X35110Y310803D01*
X35054Y310775D01*
X35000Y310744D01*
X34948Y310709D01*
X34898Y310672D01*
X34851Y310631D01*
X34806Y310587D01*
X34763Y310541D01*
X34724Y310492D01*
X34688Y310441D01*
X34655Y310388D01*
X34626Y310333D01*
X34599Y310276D01*
X34577Y310218D01*
X34558Y310158D01*
X34543Y310097D01*
X34531Y310036D01*
X34523Y309974D01*
X34519Y309911D01*
X34519Y309849D01*
X34523Y309786D01*
X34531Y309724D01*
X34543Y309663D01*
X34558Y309602D01*
X34577Y309542D01*
X34599Y309484D01*
X34626Y309427D01*
X34655Y309372D01*
X34688Y309319D01*
X34724Y309268D01*
X34763Y309219D01*
X34806Y309173D01*
X34851Y309129D01*
X34898Y309088D01*
X34948Y309051D01*
X35000Y309016D01*
X35054Y308985D01*
X35110Y308957D01*
X35168Y308933D01*
X35227Y308912D01*
X35287Y308895D01*
X35348Y308881D01*
X35410Y308872D01*
X35472Y308866D01*
X35535Y308864D01*
X36551Y308864D01*
M02*
