G04 EAGLE Gerber X2 export*
%TF.Part,Single*%
%TF.FileFunction,Legend,Top,1*%
%TF.FilePolarity,Positive*%
%TF.GenerationSoftware,Autodesk,EAGLE,8.6.0*%
%TF.CreationDate,2018-09-01T13:25:50Z*%
G75*
%MOMM*%
%FSLAX34Y34*%
%LPD*%
%AMOC8*
5,1,8,0,0,1.08239X$1,22.5*%
G01*
%ADD10C,0.101600*%
%ADD11C,0.254000*%
%ADD12C,0.200000*%
%ADD13C,0.250000*%
%ADD14C,0.203200*%
%ADD15C,0.177800*%
%ADD16C,0.050000*%


D10*
X253050Y222758D02*
X250453Y222758D01*
X250354Y222760D01*
X250254Y222766D01*
X250155Y222775D01*
X250057Y222788D01*
X249959Y222805D01*
X249861Y222826D01*
X249765Y222851D01*
X249670Y222879D01*
X249576Y222911D01*
X249483Y222946D01*
X249391Y222985D01*
X249301Y223028D01*
X249213Y223073D01*
X249126Y223123D01*
X249042Y223175D01*
X248959Y223231D01*
X248879Y223289D01*
X248801Y223351D01*
X248726Y223416D01*
X248653Y223484D01*
X248583Y223554D01*
X248515Y223627D01*
X248450Y223702D01*
X248388Y223780D01*
X248330Y223860D01*
X248274Y223943D01*
X248222Y224027D01*
X248172Y224114D01*
X248127Y224202D01*
X248084Y224292D01*
X248045Y224384D01*
X248010Y224477D01*
X247978Y224571D01*
X247950Y224666D01*
X247925Y224762D01*
X247904Y224860D01*
X247887Y224958D01*
X247874Y225056D01*
X247865Y225155D01*
X247859Y225255D01*
X247857Y225354D01*
X247857Y231846D01*
X247859Y231945D01*
X247865Y232045D01*
X247874Y232144D01*
X247887Y232242D01*
X247904Y232340D01*
X247925Y232438D01*
X247950Y232534D01*
X247978Y232629D01*
X248010Y232723D01*
X248045Y232816D01*
X248084Y232908D01*
X248127Y232998D01*
X248172Y233086D01*
X248222Y233173D01*
X248274Y233257D01*
X248330Y233340D01*
X248388Y233420D01*
X248450Y233498D01*
X248515Y233573D01*
X248583Y233646D01*
X248653Y233716D01*
X248726Y233784D01*
X248801Y233849D01*
X248879Y233911D01*
X248959Y233969D01*
X249042Y234025D01*
X249126Y234077D01*
X249213Y234127D01*
X249301Y234172D01*
X249391Y234215D01*
X249483Y234254D01*
X249575Y234289D01*
X249670Y234321D01*
X249765Y234349D01*
X249861Y234374D01*
X249959Y234395D01*
X250057Y234412D01*
X250155Y234425D01*
X250254Y234434D01*
X250354Y234440D01*
X250453Y234442D01*
X253050Y234442D01*
X257819Y234442D02*
X257819Y222758D01*
X263011Y222758D01*
X267321Y226004D02*
X267321Y231196D01*
X267320Y231196D02*
X267322Y231309D01*
X267328Y231422D01*
X267338Y231535D01*
X267352Y231648D01*
X267369Y231760D01*
X267391Y231871D01*
X267416Y231981D01*
X267446Y232091D01*
X267479Y232199D01*
X267516Y232306D01*
X267556Y232412D01*
X267601Y232516D01*
X267649Y232619D01*
X267700Y232720D01*
X267755Y232819D01*
X267813Y232916D01*
X267875Y233011D01*
X267940Y233104D01*
X268008Y233194D01*
X268079Y233282D01*
X268154Y233368D01*
X268231Y233451D01*
X268311Y233531D01*
X268394Y233608D01*
X268480Y233683D01*
X268568Y233754D01*
X268658Y233822D01*
X268751Y233887D01*
X268846Y233949D01*
X268943Y234007D01*
X269042Y234062D01*
X269143Y234113D01*
X269246Y234161D01*
X269350Y234206D01*
X269456Y234246D01*
X269563Y234283D01*
X269671Y234316D01*
X269781Y234346D01*
X269891Y234371D01*
X270002Y234393D01*
X270114Y234410D01*
X270227Y234424D01*
X270340Y234434D01*
X270453Y234440D01*
X270566Y234442D01*
X270679Y234440D01*
X270792Y234434D01*
X270905Y234424D01*
X271018Y234410D01*
X271130Y234393D01*
X271241Y234371D01*
X271351Y234346D01*
X271461Y234316D01*
X271569Y234283D01*
X271676Y234246D01*
X271782Y234206D01*
X271886Y234161D01*
X271989Y234113D01*
X272090Y234062D01*
X272189Y234007D01*
X272286Y233949D01*
X272381Y233887D01*
X272474Y233822D01*
X272564Y233754D01*
X272652Y233683D01*
X272738Y233608D01*
X272821Y233531D01*
X272901Y233451D01*
X272978Y233368D01*
X273053Y233282D01*
X273124Y233194D01*
X273192Y233104D01*
X273257Y233011D01*
X273319Y232916D01*
X273377Y232819D01*
X273432Y232720D01*
X273483Y232619D01*
X273531Y232516D01*
X273576Y232412D01*
X273616Y232306D01*
X273653Y232199D01*
X273686Y232091D01*
X273716Y231981D01*
X273741Y231871D01*
X273763Y231760D01*
X273780Y231648D01*
X273794Y231535D01*
X273804Y231422D01*
X273810Y231309D01*
X273812Y231196D01*
X273812Y226004D01*
X273810Y225891D01*
X273804Y225778D01*
X273794Y225665D01*
X273780Y225552D01*
X273763Y225440D01*
X273741Y225329D01*
X273716Y225219D01*
X273686Y225109D01*
X273653Y225001D01*
X273616Y224894D01*
X273576Y224788D01*
X273531Y224684D01*
X273483Y224581D01*
X273432Y224480D01*
X273377Y224381D01*
X273319Y224284D01*
X273257Y224189D01*
X273192Y224096D01*
X273124Y224006D01*
X273053Y223918D01*
X272978Y223832D01*
X272901Y223749D01*
X272821Y223669D01*
X272738Y223592D01*
X272652Y223517D01*
X272564Y223446D01*
X272474Y223378D01*
X272381Y223313D01*
X272286Y223251D01*
X272189Y223193D01*
X272090Y223138D01*
X271989Y223087D01*
X271886Y223039D01*
X271782Y222994D01*
X271676Y222954D01*
X271569Y222917D01*
X271461Y222884D01*
X271351Y222854D01*
X271241Y222829D01*
X271130Y222807D01*
X271018Y222790D01*
X270905Y222776D01*
X270792Y222766D01*
X270679Y222760D01*
X270566Y222758D01*
X270453Y222760D01*
X270340Y222766D01*
X270227Y222776D01*
X270114Y222790D01*
X270002Y222807D01*
X269891Y222829D01*
X269781Y222854D01*
X269671Y222884D01*
X269563Y222917D01*
X269456Y222954D01*
X269350Y222994D01*
X269246Y223039D01*
X269143Y223087D01*
X269042Y223138D01*
X268943Y223193D01*
X268846Y223251D01*
X268751Y223313D01*
X268658Y223378D01*
X268568Y223446D01*
X268480Y223517D01*
X268394Y223592D01*
X268311Y223669D01*
X268231Y223749D01*
X268154Y223832D01*
X268079Y223918D01*
X268008Y224006D01*
X267940Y224096D01*
X267875Y224189D01*
X267813Y224284D01*
X267755Y224381D01*
X267700Y224480D01*
X267649Y224581D01*
X267601Y224684D01*
X267556Y224788D01*
X267516Y224894D01*
X267479Y225001D01*
X267446Y225109D01*
X267416Y225219D01*
X267391Y225329D01*
X267369Y225440D01*
X267352Y225552D01*
X267338Y225665D01*
X267328Y225778D01*
X267322Y225891D01*
X267320Y226004D01*
X278751Y231846D02*
X281996Y234442D01*
X281996Y222758D01*
X278751Y222758D02*
X285242Y222758D01*
X253050Y248158D02*
X250453Y248158D01*
X250354Y248160D01*
X250254Y248166D01*
X250155Y248175D01*
X250057Y248188D01*
X249959Y248205D01*
X249861Y248226D01*
X249765Y248251D01*
X249670Y248279D01*
X249576Y248311D01*
X249483Y248346D01*
X249391Y248385D01*
X249301Y248428D01*
X249213Y248473D01*
X249126Y248523D01*
X249042Y248575D01*
X248959Y248631D01*
X248879Y248689D01*
X248801Y248751D01*
X248726Y248816D01*
X248653Y248884D01*
X248583Y248954D01*
X248515Y249027D01*
X248450Y249102D01*
X248388Y249180D01*
X248330Y249260D01*
X248274Y249343D01*
X248222Y249427D01*
X248172Y249514D01*
X248127Y249602D01*
X248084Y249692D01*
X248045Y249784D01*
X248010Y249877D01*
X247978Y249971D01*
X247950Y250066D01*
X247925Y250162D01*
X247904Y250260D01*
X247887Y250358D01*
X247874Y250456D01*
X247865Y250555D01*
X247859Y250655D01*
X247857Y250754D01*
X247857Y257246D01*
X247859Y257345D01*
X247865Y257445D01*
X247874Y257544D01*
X247887Y257642D01*
X247904Y257740D01*
X247925Y257838D01*
X247950Y257934D01*
X247978Y258029D01*
X248010Y258123D01*
X248045Y258216D01*
X248084Y258308D01*
X248127Y258398D01*
X248172Y258486D01*
X248222Y258573D01*
X248274Y258657D01*
X248330Y258740D01*
X248388Y258820D01*
X248450Y258898D01*
X248515Y258973D01*
X248583Y259046D01*
X248653Y259116D01*
X248726Y259184D01*
X248801Y259249D01*
X248879Y259311D01*
X248959Y259369D01*
X249042Y259425D01*
X249126Y259477D01*
X249213Y259527D01*
X249301Y259572D01*
X249391Y259615D01*
X249483Y259654D01*
X249575Y259689D01*
X249670Y259721D01*
X249765Y259749D01*
X249861Y259774D01*
X249959Y259795D01*
X250057Y259812D01*
X250155Y259825D01*
X250254Y259834D01*
X250354Y259840D01*
X250453Y259842D01*
X253050Y259842D01*
X257819Y259842D02*
X257819Y248158D01*
X263011Y248158D01*
X267321Y251404D02*
X267321Y256596D01*
X267320Y256596D02*
X267322Y256709D01*
X267328Y256822D01*
X267338Y256935D01*
X267352Y257048D01*
X267369Y257160D01*
X267391Y257271D01*
X267416Y257381D01*
X267446Y257491D01*
X267479Y257599D01*
X267516Y257706D01*
X267556Y257812D01*
X267601Y257916D01*
X267649Y258019D01*
X267700Y258120D01*
X267755Y258219D01*
X267813Y258316D01*
X267875Y258411D01*
X267940Y258504D01*
X268008Y258594D01*
X268079Y258682D01*
X268154Y258768D01*
X268231Y258851D01*
X268311Y258931D01*
X268394Y259008D01*
X268480Y259083D01*
X268568Y259154D01*
X268658Y259222D01*
X268751Y259287D01*
X268846Y259349D01*
X268943Y259407D01*
X269042Y259462D01*
X269143Y259513D01*
X269246Y259561D01*
X269350Y259606D01*
X269456Y259646D01*
X269563Y259683D01*
X269671Y259716D01*
X269781Y259746D01*
X269891Y259771D01*
X270002Y259793D01*
X270114Y259810D01*
X270227Y259824D01*
X270340Y259834D01*
X270453Y259840D01*
X270566Y259842D01*
X270679Y259840D01*
X270792Y259834D01*
X270905Y259824D01*
X271018Y259810D01*
X271130Y259793D01*
X271241Y259771D01*
X271351Y259746D01*
X271461Y259716D01*
X271569Y259683D01*
X271676Y259646D01*
X271782Y259606D01*
X271886Y259561D01*
X271989Y259513D01*
X272090Y259462D01*
X272189Y259407D01*
X272286Y259349D01*
X272381Y259287D01*
X272474Y259222D01*
X272564Y259154D01*
X272652Y259083D01*
X272738Y259008D01*
X272821Y258931D01*
X272901Y258851D01*
X272978Y258768D01*
X273053Y258682D01*
X273124Y258594D01*
X273192Y258504D01*
X273257Y258411D01*
X273319Y258316D01*
X273377Y258219D01*
X273432Y258120D01*
X273483Y258019D01*
X273531Y257916D01*
X273576Y257812D01*
X273616Y257706D01*
X273653Y257599D01*
X273686Y257491D01*
X273716Y257381D01*
X273741Y257271D01*
X273763Y257160D01*
X273780Y257048D01*
X273794Y256935D01*
X273804Y256822D01*
X273810Y256709D01*
X273812Y256596D01*
X273812Y251404D01*
X273810Y251291D01*
X273804Y251178D01*
X273794Y251065D01*
X273780Y250952D01*
X273763Y250840D01*
X273741Y250729D01*
X273716Y250619D01*
X273686Y250509D01*
X273653Y250401D01*
X273616Y250294D01*
X273576Y250188D01*
X273531Y250084D01*
X273483Y249981D01*
X273432Y249880D01*
X273377Y249781D01*
X273319Y249684D01*
X273257Y249589D01*
X273192Y249496D01*
X273124Y249406D01*
X273053Y249318D01*
X272978Y249232D01*
X272901Y249149D01*
X272821Y249069D01*
X272738Y248992D01*
X272652Y248917D01*
X272564Y248846D01*
X272474Y248778D01*
X272381Y248713D01*
X272286Y248651D01*
X272189Y248593D01*
X272090Y248538D01*
X271989Y248487D01*
X271886Y248439D01*
X271782Y248394D01*
X271676Y248354D01*
X271569Y248317D01*
X271461Y248284D01*
X271351Y248254D01*
X271241Y248229D01*
X271130Y248207D01*
X271018Y248190D01*
X270905Y248176D01*
X270792Y248166D01*
X270679Y248160D01*
X270566Y248158D01*
X270453Y248160D01*
X270340Y248166D01*
X270227Y248176D01*
X270114Y248190D01*
X270002Y248207D01*
X269891Y248229D01*
X269781Y248254D01*
X269671Y248284D01*
X269563Y248317D01*
X269456Y248354D01*
X269350Y248394D01*
X269246Y248439D01*
X269143Y248487D01*
X269042Y248538D01*
X268943Y248593D01*
X268846Y248651D01*
X268751Y248713D01*
X268658Y248778D01*
X268568Y248846D01*
X268480Y248917D01*
X268394Y248992D01*
X268311Y249069D01*
X268231Y249149D01*
X268154Y249232D01*
X268079Y249318D01*
X268008Y249406D01*
X267940Y249496D01*
X267875Y249589D01*
X267813Y249684D01*
X267755Y249781D01*
X267700Y249880D01*
X267649Y249981D01*
X267601Y250084D01*
X267556Y250188D01*
X267516Y250294D01*
X267479Y250401D01*
X267446Y250509D01*
X267416Y250619D01*
X267391Y250729D01*
X267369Y250840D01*
X267352Y250952D01*
X267338Y251065D01*
X267328Y251178D01*
X267322Y251291D01*
X267320Y251404D01*
X282321Y259842D02*
X282428Y259840D01*
X282534Y259834D01*
X282640Y259824D01*
X282746Y259811D01*
X282852Y259793D01*
X282956Y259772D01*
X283060Y259747D01*
X283163Y259718D01*
X283264Y259686D01*
X283364Y259649D01*
X283463Y259609D01*
X283561Y259566D01*
X283657Y259519D01*
X283751Y259468D01*
X283843Y259414D01*
X283933Y259357D01*
X284021Y259297D01*
X284106Y259233D01*
X284189Y259166D01*
X284270Y259096D01*
X284348Y259024D01*
X284424Y258948D01*
X284496Y258870D01*
X284566Y258789D01*
X284633Y258706D01*
X284697Y258621D01*
X284757Y258533D01*
X284814Y258443D01*
X284868Y258351D01*
X284919Y258257D01*
X284966Y258161D01*
X285009Y258063D01*
X285049Y257964D01*
X285086Y257864D01*
X285118Y257763D01*
X285147Y257660D01*
X285172Y257556D01*
X285193Y257452D01*
X285211Y257346D01*
X285224Y257240D01*
X285234Y257134D01*
X285240Y257028D01*
X285242Y256921D01*
X282321Y259842D02*
X282200Y259840D01*
X282079Y259834D01*
X281959Y259824D01*
X281838Y259811D01*
X281719Y259793D01*
X281599Y259772D01*
X281481Y259747D01*
X281364Y259718D01*
X281247Y259685D01*
X281132Y259649D01*
X281018Y259608D01*
X280905Y259565D01*
X280793Y259517D01*
X280684Y259466D01*
X280576Y259411D01*
X280469Y259353D01*
X280365Y259292D01*
X280263Y259227D01*
X280163Y259159D01*
X280065Y259088D01*
X279969Y259014D01*
X279876Y258937D01*
X279786Y258856D01*
X279698Y258773D01*
X279613Y258687D01*
X279530Y258598D01*
X279451Y258507D01*
X279374Y258413D01*
X279301Y258317D01*
X279231Y258219D01*
X279164Y258118D01*
X279100Y258015D01*
X279040Y257910D01*
X278983Y257803D01*
X278929Y257695D01*
X278879Y257585D01*
X278833Y257473D01*
X278790Y257360D01*
X278751Y257245D01*
X284269Y254649D02*
X284348Y254726D01*
X284424Y254807D01*
X284497Y254890D01*
X284567Y254975D01*
X284634Y255063D01*
X284698Y255153D01*
X284758Y255245D01*
X284815Y255340D01*
X284869Y255436D01*
X284920Y255534D01*
X284967Y255634D01*
X285011Y255736D01*
X285051Y255839D01*
X285087Y255943D01*
X285119Y256049D01*
X285148Y256155D01*
X285173Y256263D01*
X285195Y256371D01*
X285212Y256481D01*
X285226Y256590D01*
X285235Y256700D01*
X285241Y256811D01*
X285243Y256921D01*
X284268Y254649D02*
X278751Y248158D01*
X285242Y248158D01*
X238116Y225728D02*
X232924Y225728D01*
X232811Y225730D01*
X232698Y225736D01*
X232585Y225746D01*
X232472Y225760D01*
X232360Y225777D01*
X232249Y225799D01*
X232139Y225824D01*
X232029Y225854D01*
X231921Y225887D01*
X231814Y225924D01*
X231708Y225964D01*
X231604Y226009D01*
X231501Y226057D01*
X231400Y226108D01*
X231301Y226163D01*
X231204Y226221D01*
X231109Y226283D01*
X231016Y226348D01*
X230926Y226416D01*
X230838Y226487D01*
X230752Y226562D01*
X230669Y226639D01*
X230589Y226719D01*
X230512Y226802D01*
X230437Y226888D01*
X230366Y226976D01*
X230298Y227066D01*
X230233Y227159D01*
X230171Y227254D01*
X230113Y227351D01*
X230058Y227450D01*
X230007Y227551D01*
X229959Y227654D01*
X229914Y227758D01*
X229874Y227864D01*
X229837Y227971D01*
X229804Y228079D01*
X229774Y228189D01*
X229749Y228299D01*
X229727Y228410D01*
X229710Y228522D01*
X229696Y228635D01*
X229686Y228748D01*
X229680Y228861D01*
X229678Y228974D01*
X229680Y229087D01*
X229686Y229200D01*
X229696Y229313D01*
X229710Y229426D01*
X229727Y229538D01*
X229749Y229649D01*
X229774Y229759D01*
X229804Y229869D01*
X229837Y229977D01*
X229874Y230084D01*
X229914Y230190D01*
X229959Y230294D01*
X230007Y230397D01*
X230058Y230498D01*
X230113Y230597D01*
X230171Y230694D01*
X230233Y230789D01*
X230298Y230882D01*
X230366Y230972D01*
X230437Y231060D01*
X230512Y231146D01*
X230589Y231229D01*
X230669Y231309D01*
X230752Y231386D01*
X230838Y231461D01*
X230926Y231532D01*
X231016Y231600D01*
X231109Y231665D01*
X231204Y231727D01*
X231301Y231785D01*
X231400Y231840D01*
X231501Y231891D01*
X231604Y231939D01*
X231708Y231984D01*
X231814Y232024D01*
X231921Y232061D01*
X232029Y232094D01*
X232139Y232124D01*
X232249Y232149D01*
X232360Y232171D01*
X232472Y232188D01*
X232585Y232202D01*
X232698Y232212D01*
X232811Y232218D01*
X232924Y232220D01*
X232924Y232219D02*
X238116Y232219D01*
X238116Y232220D02*
X238229Y232218D01*
X238342Y232212D01*
X238455Y232202D01*
X238568Y232188D01*
X238680Y232171D01*
X238791Y232149D01*
X238901Y232124D01*
X239011Y232094D01*
X239119Y232061D01*
X239226Y232024D01*
X239332Y231984D01*
X239436Y231939D01*
X239539Y231891D01*
X239640Y231840D01*
X239739Y231785D01*
X239836Y231727D01*
X239931Y231665D01*
X240024Y231600D01*
X240114Y231532D01*
X240202Y231461D01*
X240288Y231386D01*
X240371Y231309D01*
X240451Y231229D01*
X240528Y231146D01*
X240603Y231060D01*
X240674Y230972D01*
X240742Y230882D01*
X240807Y230789D01*
X240869Y230694D01*
X240927Y230597D01*
X240982Y230498D01*
X241033Y230397D01*
X241081Y230294D01*
X241126Y230190D01*
X241166Y230084D01*
X241203Y229977D01*
X241236Y229869D01*
X241266Y229759D01*
X241291Y229649D01*
X241313Y229538D01*
X241330Y229426D01*
X241344Y229313D01*
X241354Y229200D01*
X241360Y229087D01*
X241362Y228974D01*
X241360Y228861D01*
X241354Y228748D01*
X241344Y228635D01*
X241330Y228522D01*
X241313Y228410D01*
X241291Y228299D01*
X241266Y228189D01*
X241236Y228079D01*
X241203Y227971D01*
X241166Y227864D01*
X241126Y227758D01*
X241081Y227654D01*
X241033Y227551D01*
X240982Y227450D01*
X240927Y227351D01*
X240869Y227254D01*
X240807Y227159D01*
X240742Y227066D01*
X240674Y226976D01*
X240603Y226888D01*
X240528Y226802D01*
X240451Y226719D01*
X240371Y226639D01*
X240288Y226562D01*
X240202Y226487D01*
X240114Y226416D01*
X240024Y226348D01*
X239931Y226283D01*
X239836Y226221D01*
X239739Y226163D01*
X239640Y226108D01*
X239539Y226057D01*
X239436Y226009D01*
X239332Y225964D01*
X239226Y225924D01*
X239119Y225887D01*
X239011Y225854D01*
X238901Y225824D01*
X238791Y225799D01*
X238680Y225777D01*
X238568Y225760D01*
X238455Y225746D01*
X238342Y225736D01*
X238229Y225730D01*
X238116Y225728D01*
X241362Y240672D02*
X241360Y240771D01*
X241354Y240871D01*
X241345Y240970D01*
X241332Y241068D01*
X241315Y241166D01*
X241294Y241264D01*
X241269Y241360D01*
X241241Y241455D01*
X241209Y241549D01*
X241174Y241642D01*
X241135Y241734D01*
X241092Y241824D01*
X241047Y241912D01*
X240997Y241999D01*
X240945Y242083D01*
X240889Y242166D01*
X240831Y242246D01*
X240769Y242324D01*
X240704Y242399D01*
X240636Y242472D01*
X240566Y242542D01*
X240493Y242610D01*
X240418Y242675D01*
X240340Y242737D01*
X240260Y242795D01*
X240177Y242851D01*
X240093Y242903D01*
X240006Y242953D01*
X239918Y242998D01*
X239828Y243041D01*
X239736Y243080D01*
X239643Y243115D01*
X239549Y243147D01*
X239454Y243175D01*
X239358Y243200D01*
X239260Y243221D01*
X239162Y243238D01*
X239064Y243251D01*
X238965Y243260D01*
X238865Y243266D01*
X238766Y243268D01*
X241362Y240672D02*
X241360Y240528D01*
X241354Y240383D01*
X241345Y240239D01*
X241332Y240096D01*
X241315Y239952D01*
X241294Y239809D01*
X241269Y239667D01*
X241241Y239526D01*
X241209Y239385D01*
X241173Y239245D01*
X241134Y239106D01*
X241091Y238968D01*
X241044Y238832D01*
X240994Y238696D01*
X240940Y238562D01*
X240883Y238430D01*
X240822Y238299D01*
X240758Y238170D01*
X240690Y238042D01*
X240620Y237916D01*
X240545Y237792D01*
X240468Y237671D01*
X240387Y237551D01*
X240304Y237433D01*
X240217Y237318D01*
X240127Y237205D01*
X240034Y237094D01*
X239939Y236986D01*
X239840Y236880D01*
X239739Y236777D01*
X232274Y237102D02*
X232175Y237104D01*
X232075Y237110D01*
X231976Y237119D01*
X231878Y237132D01*
X231780Y237149D01*
X231682Y237170D01*
X231586Y237195D01*
X231491Y237223D01*
X231397Y237255D01*
X231304Y237290D01*
X231212Y237329D01*
X231122Y237372D01*
X231034Y237417D01*
X230947Y237467D01*
X230863Y237519D01*
X230780Y237575D01*
X230700Y237633D01*
X230622Y237695D01*
X230547Y237760D01*
X230474Y237828D01*
X230404Y237898D01*
X230336Y237971D01*
X230271Y238046D01*
X230209Y238124D01*
X230151Y238204D01*
X230095Y238287D01*
X230043Y238371D01*
X229993Y238458D01*
X229948Y238546D01*
X229905Y238636D01*
X229866Y238728D01*
X229831Y238821D01*
X229799Y238915D01*
X229771Y239010D01*
X229746Y239106D01*
X229725Y239204D01*
X229708Y239302D01*
X229695Y239400D01*
X229686Y239499D01*
X229680Y239599D01*
X229678Y239698D01*
X229680Y239834D01*
X229686Y239970D01*
X229695Y240106D01*
X229708Y240242D01*
X229726Y240377D01*
X229746Y240511D01*
X229771Y240645D01*
X229799Y240779D01*
X229832Y240911D01*
X229867Y241042D01*
X229907Y241173D01*
X229950Y241302D01*
X229996Y241430D01*
X230047Y241556D01*
X230100Y241682D01*
X230158Y241805D01*
X230218Y241927D01*
X230282Y242047D01*
X230350Y242166D01*
X230420Y242282D01*
X230494Y242396D01*
X230571Y242509D01*
X230652Y242619D01*
X234546Y238399D02*
X234493Y238313D01*
X234436Y238229D01*
X234377Y238147D01*
X234314Y238067D01*
X234248Y237990D01*
X234180Y237915D01*
X234108Y237843D01*
X234034Y237774D01*
X233957Y237708D01*
X233878Y237645D01*
X233796Y237585D01*
X233712Y237528D01*
X233626Y237474D01*
X233538Y237424D01*
X233448Y237377D01*
X233357Y237333D01*
X233263Y237294D01*
X233169Y237257D01*
X233073Y237225D01*
X232975Y237196D01*
X232877Y237171D01*
X232778Y237150D01*
X232678Y237132D01*
X232578Y237119D01*
X232477Y237109D01*
X232375Y237103D01*
X232274Y237101D01*
X236494Y241970D02*
X236547Y242056D01*
X236604Y242140D01*
X236663Y242222D01*
X236726Y242302D01*
X236792Y242379D01*
X236860Y242454D01*
X236932Y242526D01*
X237006Y242595D01*
X237083Y242661D01*
X237162Y242724D01*
X237244Y242784D01*
X237328Y242841D01*
X237414Y242895D01*
X237502Y242945D01*
X237592Y242992D01*
X237683Y243036D01*
X237777Y243075D01*
X237871Y243112D01*
X237967Y243144D01*
X238065Y243173D01*
X238163Y243198D01*
X238262Y243219D01*
X238362Y243237D01*
X238462Y243250D01*
X238563Y243260D01*
X238665Y243266D01*
X238766Y243268D01*
X236494Y241970D02*
X234546Y238400D01*
X241362Y250389D02*
X241362Y252986D01*
X241362Y250389D02*
X241360Y250290D01*
X241354Y250190D01*
X241345Y250091D01*
X241332Y249993D01*
X241315Y249895D01*
X241294Y249797D01*
X241269Y249701D01*
X241241Y249606D01*
X241209Y249512D01*
X241174Y249419D01*
X241135Y249327D01*
X241092Y249237D01*
X241047Y249149D01*
X240997Y249062D01*
X240945Y248978D01*
X240889Y248895D01*
X240831Y248815D01*
X240769Y248737D01*
X240704Y248662D01*
X240636Y248589D01*
X240566Y248519D01*
X240493Y248451D01*
X240418Y248386D01*
X240340Y248324D01*
X240260Y248266D01*
X240177Y248210D01*
X240093Y248158D01*
X240006Y248108D01*
X239918Y248063D01*
X239828Y248020D01*
X239736Y247981D01*
X239643Y247946D01*
X239549Y247914D01*
X239454Y247886D01*
X239358Y247861D01*
X239260Y247840D01*
X239162Y247823D01*
X239064Y247810D01*
X238965Y247801D01*
X238865Y247795D01*
X238766Y247793D01*
X232274Y247793D01*
X232274Y247792D02*
X232175Y247794D01*
X232075Y247800D01*
X231976Y247809D01*
X231878Y247822D01*
X231780Y247840D01*
X231682Y247860D01*
X231586Y247885D01*
X231490Y247913D01*
X231396Y247945D01*
X231303Y247980D01*
X231212Y248019D01*
X231122Y248062D01*
X231033Y248107D01*
X230947Y248157D01*
X230862Y248209D01*
X230780Y248265D01*
X230700Y248324D01*
X230622Y248385D01*
X230546Y248450D01*
X230473Y248518D01*
X230403Y248588D01*
X230335Y248661D01*
X230270Y248737D01*
X230209Y248815D01*
X230150Y248895D01*
X230094Y248977D01*
X230042Y249062D01*
X229993Y249148D01*
X229947Y249237D01*
X229904Y249327D01*
X229865Y249418D01*
X229830Y249511D01*
X229798Y249605D01*
X229770Y249701D01*
X229745Y249797D01*
X229725Y249895D01*
X229707Y249993D01*
X229694Y250091D01*
X229685Y250190D01*
X229679Y250289D01*
X229677Y250389D01*
X229678Y250389D02*
X229678Y252986D01*
X241362Y257351D02*
X241362Y260596D01*
X241360Y260709D01*
X241354Y260822D01*
X241344Y260935D01*
X241330Y261048D01*
X241313Y261160D01*
X241291Y261271D01*
X241266Y261381D01*
X241236Y261491D01*
X241203Y261599D01*
X241166Y261706D01*
X241126Y261812D01*
X241081Y261916D01*
X241033Y262019D01*
X240982Y262120D01*
X240927Y262219D01*
X240869Y262316D01*
X240807Y262411D01*
X240742Y262504D01*
X240674Y262594D01*
X240603Y262682D01*
X240528Y262768D01*
X240451Y262851D01*
X240371Y262931D01*
X240288Y263008D01*
X240202Y263083D01*
X240114Y263154D01*
X240024Y263222D01*
X239931Y263287D01*
X239836Y263349D01*
X239739Y263407D01*
X239640Y263462D01*
X239539Y263513D01*
X239436Y263561D01*
X239332Y263606D01*
X239226Y263646D01*
X239119Y263683D01*
X239011Y263716D01*
X238901Y263746D01*
X238791Y263771D01*
X238680Y263793D01*
X238568Y263810D01*
X238455Y263824D01*
X238342Y263834D01*
X238229Y263840D01*
X238116Y263842D01*
X238003Y263840D01*
X237890Y263834D01*
X237777Y263824D01*
X237664Y263810D01*
X237552Y263793D01*
X237441Y263771D01*
X237331Y263746D01*
X237221Y263716D01*
X237113Y263683D01*
X237006Y263646D01*
X236900Y263606D01*
X236796Y263561D01*
X236693Y263513D01*
X236592Y263462D01*
X236493Y263407D01*
X236396Y263349D01*
X236301Y263287D01*
X236208Y263222D01*
X236118Y263154D01*
X236030Y263083D01*
X235944Y263008D01*
X235861Y262931D01*
X235781Y262851D01*
X235704Y262768D01*
X235629Y262682D01*
X235558Y262594D01*
X235490Y262504D01*
X235425Y262411D01*
X235363Y262316D01*
X235305Y262219D01*
X235250Y262120D01*
X235199Y262019D01*
X235151Y261916D01*
X235106Y261812D01*
X235066Y261706D01*
X235029Y261599D01*
X234996Y261491D01*
X234966Y261381D01*
X234941Y261271D01*
X234919Y261160D01*
X234902Y261048D01*
X234888Y260935D01*
X234878Y260822D01*
X234872Y260709D01*
X234870Y260596D01*
X229678Y261246D02*
X229678Y257351D01*
X229678Y261246D02*
X229680Y261347D01*
X229686Y261447D01*
X229696Y261547D01*
X229709Y261647D01*
X229727Y261746D01*
X229748Y261845D01*
X229773Y261942D01*
X229802Y262039D01*
X229835Y262134D01*
X229871Y262228D01*
X229911Y262320D01*
X229954Y262411D01*
X230001Y262500D01*
X230051Y262587D01*
X230105Y262673D01*
X230162Y262756D01*
X230222Y262836D01*
X230285Y262915D01*
X230352Y262991D01*
X230421Y263064D01*
X230493Y263134D01*
X230567Y263202D01*
X230644Y263267D01*
X230724Y263328D01*
X230806Y263387D01*
X230890Y263442D01*
X230976Y263494D01*
X231064Y263543D01*
X231154Y263588D01*
X231246Y263630D01*
X231339Y263668D01*
X231434Y263702D01*
X231529Y263733D01*
X231626Y263760D01*
X231724Y263783D01*
X231823Y263803D01*
X231923Y263818D01*
X232023Y263830D01*
X232123Y263838D01*
X232224Y263842D01*
X232324Y263842D01*
X232425Y263838D01*
X232525Y263830D01*
X232625Y263818D01*
X232725Y263803D01*
X232824Y263783D01*
X232922Y263760D01*
X233019Y263733D01*
X233114Y263702D01*
X233209Y263668D01*
X233302Y263630D01*
X233394Y263588D01*
X233484Y263543D01*
X233572Y263494D01*
X233658Y263442D01*
X233742Y263387D01*
X233824Y263328D01*
X233904Y263267D01*
X233981Y263202D01*
X234055Y263134D01*
X234127Y263064D01*
X234196Y262991D01*
X234263Y262915D01*
X234326Y262836D01*
X234386Y262756D01*
X234443Y262673D01*
X234497Y262587D01*
X234547Y262500D01*
X234594Y262411D01*
X234637Y262320D01*
X234677Y262228D01*
X234713Y262134D01*
X234746Y262039D01*
X234775Y261942D01*
X234800Y261845D01*
X234821Y261746D01*
X234839Y261647D01*
X234852Y261547D01*
X234862Y261447D01*
X234868Y261347D01*
X234870Y261246D01*
X234871Y261246D02*
X234871Y258649D01*
X229678Y272351D02*
X229680Y272458D01*
X229686Y272564D01*
X229696Y272670D01*
X229709Y272776D01*
X229727Y272882D01*
X229748Y272986D01*
X229773Y273090D01*
X229802Y273193D01*
X229834Y273294D01*
X229871Y273394D01*
X229911Y273493D01*
X229954Y273591D01*
X230001Y273687D01*
X230052Y273781D01*
X230106Y273873D01*
X230163Y273963D01*
X230223Y274051D01*
X230287Y274136D01*
X230354Y274219D01*
X230424Y274300D01*
X230496Y274378D01*
X230572Y274454D01*
X230650Y274526D01*
X230731Y274596D01*
X230814Y274663D01*
X230899Y274727D01*
X230987Y274787D01*
X231077Y274844D01*
X231169Y274898D01*
X231263Y274949D01*
X231359Y274996D01*
X231457Y275039D01*
X231556Y275079D01*
X231656Y275116D01*
X231757Y275148D01*
X231860Y275177D01*
X231964Y275202D01*
X232068Y275223D01*
X232174Y275241D01*
X232280Y275254D01*
X232386Y275264D01*
X232492Y275270D01*
X232599Y275272D01*
X229678Y272351D02*
X229680Y272230D01*
X229686Y272109D01*
X229696Y271989D01*
X229709Y271868D01*
X229727Y271749D01*
X229748Y271629D01*
X229773Y271511D01*
X229802Y271394D01*
X229835Y271277D01*
X229871Y271162D01*
X229912Y271048D01*
X229955Y270935D01*
X230003Y270823D01*
X230054Y270714D01*
X230109Y270606D01*
X230167Y270499D01*
X230228Y270395D01*
X230293Y270293D01*
X230361Y270193D01*
X230432Y270095D01*
X230506Y269999D01*
X230583Y269906D01*
X230664Y269816D01*
X230747Y269728D01*
X230833Y269643D01*
X230922Y269560D01*
X231013Y269481D01*
X231107Y269404D01*
X231203Y269331D01*
X231301Y269261D01*
X231402Y269194D01*
X231505Y269130D01*
X231610Y269070D01*
X231717Y269012D01*
X231825Y268959D01*
X231935Y268909D01*
X232047Y268863D01*
X232160Y268820D01*
X232275Y268781D01*
X234871Y274298D02*
X234793Y274377D01*
X234713Y274453D01*
X234630Y274526D01*
X234544Y274596D01*
X234457Y274663D01*
X234366Y274727D01*
X234274Y274787D01*
X234180Y274845D01*
X234083Y274899D01*
X233985Y274949D01*
X233885Y274996D01*
X233784Y275040D01*
X233681Y275080D01*
X233576Y275116D01*
X233471Y275148D01*
X233364Y275177D01*
X233257Y275202D01*
X233148Y275224D01*
X233039Y275241D01*
X232930Y275255D01*
X232820Y275264D01*
X232709Y275270D01*
X232599Y275272D01*
X234871Y274298D02*
X241362Y268781D01*
X241362Y275272D01*
D11*
X232340Y229030D02*
X232342Y229087D01*
X232348Y229144D01*
X232358Y229201D01*
X232371Y229257D01*
X232389Y229311D01*
X232410Y229365D01*
X232434Y229416D01*
X232462Y229466D01*
X232494Y229514D01*
X232528Y229560D01*
X232566Y229603D01*
X232607Y229644D01*
X232650Y229682D01*
X232696Y229716D01*
X232744Y229748D01*
X232794Y229776D01*
X232845Y229800D01*
X232899Y229821D01*
X232953Y229839D01*
X233009Y229852D01*
X233066Y229862D01*
X233123Y229868D01*
X233180Y229870D01*
X233237Y229868D01*
X233294Y229862D01*
X233351Y229852D01*
X233407Y229839D01*
X233461Y229821D01*
X233515Y229800D01*
X233566Y229776D01*
X233616Y229748D01*
X233664Y229716D01*
X233710Y229682D01*
X233753Y229644D01*
X233794Y229603D01*
X233832Y229560D01*
X233866Y229514D01*
X233898Y229466D01*
X233926Y229416D01*
X233950Y229365D01*
X233971Y229311D01*
X233989Y229257D01*
X234002Y229201D01*
X234012Y229144D01*
X234018Y229087D01*
X234020Y229030D01*
X234018Y228973D01*
X234012Y228916D01*
X234002Y228859D01*
X233989Y228803D01*
X233971Y228749D01*
X233950Y228695D01*
X233926Y228644D01*
X233898Y228594D01*
X233866Y228546D01*
X233832Y228500D01*
X233794Y228457D01*
X233753Y228416D01*
X233710Y228378D01*
X233664Y228344D01*
X233616Y228312D01*
X233566Y228284D01*
X233515Y228260D01*
X233461Y228239D01*
X233407Y228221D01*
X233351Y228208D01*
X233294Y228198D01*
X233237Y228192D01*
X233180Y228190D01*
X233123Y228192D01*
X233066Y228198D01*
X233009Y228208D01*
X232953Y228221D01*
X232899Y228239D01*
X232845Y228260D01*
X232794Y228284D01*
X232744Y228312D01*
X232696Y228344D01*
X232650Y228378D01*
X232607Y228416D01*
X232566Y228457D01*
X232528Y228500D01*
X232494Y228546D01*
X232462Y228594D01*
X232434Y228644D01*
X232410Y228695D01*
X232389Y228749D01*
X232371Y228803D01*
X232358Y228859D01*
X232348Y228916D01*
X232342Y228973D01*
X232340Y229030D01*
D10*
X186704Y159544D02*
X188540Y157708D01*
X186704Y159544D02*
X186635Y159616D01*
X186569Y159690D01*
X186506Y159767D01*
X186446Y159846D01*
X186388Y159927D01*
X186334Y160011D01*
X186284Y160096D01*
X186236Y160184D01*
X186192Y160273D01*
X186151Y160364D01*
X186114Y160456D01*
X186080Y160549D01*
X186050Y160644D01*
X186024Y160740D01*
X186001Y160837D01*
X185982Y160935D01*
X185967Y161033D01*
X185956Y161132D01*
X185948Y161231D01*
X185944Y161330D01*
X185944Y161430D01*
X185948Y161529D01*
X185956Y161628D01*
X185967Y161727D01*
X185982Y161825D01*
X186001Y161923D01*
X186024Y162020D01*
X186050Y162116D01*
X186080Y162211D01*
X186114Y162304D01*
X186151Y162396D01*
X186192Y162487D01*
X186236Y162576D01*
X186284Y162664D01*
X186334Y162749D01*
X186388Y162833D01*
X186446Y162914D01*
X186506Y162993D01*
X186569Y163070D01*
X186635Y163144D01*
X186704Y163216D01*
X191294Y167806D01*
X191365Y167875D01*
X191440Y167942D01*
X191516Y168005D01*
X191595Y168065D01*
X191677Y168122D01*
X191760Y168176D01*
X191846Y168227D01*
X191933Y168275D01*
X192022Y168319D01*
X192113Y168360D01*
X192205Y168397D01*
X192299Y168431D01*
X192394Y168461D01*
X192490Y168487D01*
X192587Y168510D01*
X192684Y168528D01*
X192783Y168544D01*
X192882Y168555D01*
X192981Y168563D01*
X193080Y168567D01*
X193180Y168567D01*
X193279Y168563D01*
X193378Y168555D01*
X193477Y168544D01*
X193575Y168529D01*
X193673Y168510D01*
X193770Y168487D01*
X193866Y168461D01*
X193961Y168431D01*
X194054Y168397D01*
X194147Y168360D01*
X194238Y168319D01*
X194327Y168275D01*
X194414Y168227D01*
X194500Y168177D01*
X194583Y168122D01*
X194664Y168065D01*
X194744Y168005D01*
X194820Y167942D01*
X194895Y167875D01*
X194966Y167806D01*
X196802Y165970D01*
X193440Y152809D02*
X195275Y150973D01*
X193439Y152809D02*
X193370Y152881D01*
X193304Y152955D01*
X193241Y153032D01*
X193181Y153111D01*
X193123Y153192D01*
X193069Y153276D01*
X193019Y153361D01*
X192971Y153449D01*
X192927Y153538D01*
X192886Y153629D01*
X192849Y153721D01*
X192815Y153814D01*
X192785Y153909D01*
X192759Y154005D01*
X192736Y154102D01*
X192717Y154200D01*
X192702Y154298D01*
X192691Y154397D01*
X192683Y154496D01*
X192679Y154595D01*
X192679Y154695D01*
X192683Y154794D01*
X192691Y154893D01*
X192702Y154992D01*
X192717Y155090D01*
X192736Y155188D01*
X192759Y155285D01*
X192785Y155381D01*
X192815Y155476D01*
X192849Y155569D01*
X192886Y155661D01*
X192927Y155752D01*
X192971Y155841D01*
X193019Y155929D01*
X193069Y156014D01*
X193123Y156098D01*
X193181Y156179D01*
X193241Y156258D01*
X193304Y156335D01*
X193370Y156409D01*
X193439Y156481D01*
X193440Y156481D02*
X198029Y161071D01*
X198100Y161140D01*
X198175Y161207D01*
X198251Y161270D01*
X198330Y161330D01*
X198412Y161387D01*
X198495Y161441D01*
X198581Y161492D01*
X198668Y161540D01*
X198757Y161584D01*
X198848Y161625D01*
X198940Y161662D01*
X199034Y161696D01*
X199129Y161726D01*
X199225Y161752D01*
X199322Y161775D01*
X199419Y161793D01*
X199518Y161809D01*
X199617Y161820D01*
X199716Y161828D01*
X199815Y161832D01*
X199915Y161832D01*
X200014Y161828D01*
X200113Y161820D01*
X200212Y161809D01*
X200310Y161794D01*
X200408Y161775D01*
X200505Y161752D01*
X200601Y161726D01*
X200696Y161696D01*
X200789Y161662D01*
X200882Y161625D01*
X200973Y161584D01*
X201062Y161540D01*
X201149Y161492D01*
X201235Y161442D01*
X201318Y161387D01*
X201399Y161330D01*
X201479Y161270D01*
X201555Y161207D01*
X201630Y161140D01*
X201701Y161071D01*
X203537Y159235D01*
X204788Y154312D02*
X208919Y153853D01*
X200657Y145591D01*
X198362Y147886D02*
X202952Y143296D01*
X45650Y150378D02*
X43814Y152214D01*
X43745Y152286D01*
X43679Y152360D01*
X43616Y152437D01*
X43556Y152516D01*
X43498Y152597D01*
X43444Y152681D01*
X43394Y152766D01*
X43346Y152854D01*
X43302Y152943D01*
X43261Y153034D01*
X43224Y153126D01*
X43190Y153219D01*
X43160Y153314D01*
X43134Y153410D01*
X43111Y153507D01*
X43092Y153605D01*
X43077Y153703D01*
X43066Y153802D01*
X43058Y153901D01*
X43054Y154000D01*
X43054Y154100D01*
X43058Y154199D01*
X43066Y154298D01*
X43077Y154397D01*
X43092Y154495D01*
X43111Y154593D01*
X43134Y154690D01*
X43160Y154786D01*
X43190Y154881D01*
X43224Y154974D01*
X43261Y155066D01*
X43302Y155157D01*
X43346Y155246D01*
X43394Y155334D01*
X43444Y155419D01*
X43498Y155503D01*
X43556Y155584D01*
X43616Y155663D01*
X43679Y155740D01*
X43745Y155814D01*
X43814Y155886D01*
X48404Y160476D01*
X48475Y160545D01*
X48550Y160612D01*
X48626Y160675D01*
X48705Y160735D01*
X48787Y160792D01*
X48870Y160846D01*
X48956Y160897D01*
X49043Y160945D01*
X49132Y160989D01*
X49223Y161030D01*
X49315Y161067D01*
X49409Y161101D01*
X49504Y161131D01*
X49600Y161157D01*
X49697Y161180D01*
X49794Y161198D01*
X49893Y161214D01*
X49992Y161225D01*
X50091Y161233D01*
X50190Y161237D01*
X50290Y161237D01*
X50389Y161233D01*
X50488Y161225D01*
X50587Y161214D01*
X50685Y161199D01*
X50783Y161180D01*
X50880Y161157D01*
X50976Y161131D01*
X51071Y161101D01*
X51164Y161067D01*
X51257Y161030D01*
X51348Y160989D01*
X51437Y160945D01*
X51524Y160897D01*
X51610Y160847D01*
X51693Y160792D01*
X51774Y160735D01*
X51854Y160675D01*
X51930Y160612D01*
X52005Y160545D01*
X52076Y160476D01*
X53911Y158640D01*
X54893Y144806D02*
X54821Y144737D01*
X54747Y144671D01*
X54670Y144608D01*
X54591Y144548D01*
X54510Y144490D01*
X54426Y144436D01*
X54341Y144386D01*
X54253Y144338D01*
X54164Y144294D01*
X54073Y144253D01*
X53981Y144216D01*
X53888Y144182D01*
X53793Y144152D01*
X53697Y144126D01*
X53600Y144103D01*
X53502Y144084D01*
X53404Y144069D01*
X53305Y144058D01*
X53206Y144050D01*
X53107Y144046D01*
X53007Y144046D01*
X52908Y144050D01*
X52809Y144058D01*
X52710Y144069D01*
X52612Y144084D01*
X52514Y144103D01*
X52417Y144126D01*
X52321Y144152D01*
X52226Y144182D01*
X52133Y144216D01*
X52041Y144253D01*
X51950Y144294D01*
X51861Y144338D01*
X51773Y144386D01*
X51688Y144436D01*
X51604Y144490D01*
X51523Y144548D01*
X51444Y144608D01*
X51367Y144671D01*
X51293Y144737D01*
X51221Y144806D01*
X51221Y144807D02*
X51121Y144910D01*
X51023Y145016D01*
X50928Y145125D01*
X50835Y145236D01*
X50746Y145349D01*
X50660Y145465D01*
X50577Y145583D01*
X50497Y145703D01*
X50420Y145825D01*
X50346Y145949D01*
X50276Y146075D01*
X50209Y146203D01*
X50145Y146333D01*
X50085Y146464D01*
X50028Y146597D01*
X49975Y146731D01*
X49925Y146866D01*
X49879Y147003D01*
X49837Y147141D01*
X49798Y147280D01*
X49763Y147420D01*
X49731Y147561D01*
X49704Y147703D01*
X49680Y147845D01*
X49659Y147988D01*
X49643Y148131D01*
X49630Y148275D01*
X49621Y148419D01*
X49616Y148563D01*
X49615Y148708D01*
X55122Y153757D02*
X55194Y153826D01*
X55268Y153892D01*
X55345Y153955D01*
X55424Y154015D01*
X55505Y154073D01*
X55589Y154127D01*
X55674Y154177D01*
X55762Y154225D01*
X55851Y154269D01*
X55942Y154310D01*
X56034Y154347D01*
X56127Y154381D01*
X56222Y154411D01*
X56318Y154437D01*
X56415Y154460D01*
X56513Y154479D01*
X56611Y154494D01*
X56710Y154505D01*
X56809Y154513D01*
X56908Y154517D01*
X57008Y154517D01*
X57107Y154513D01*
X57206Y154505D01*
X57305Y154494D01*
X57403Y154479D01*
X57501Y154460D01*
X57598Y154437D01*
X57694Y154411D01*
X57789Y154381D01*
X57882Y154347D01*
X57974Y154310D01*
X58065Y154269D01*
X58154Y154225D01*
X58242Y154177D01*
X58327Y154127D01*
X58411Y154073D01*
X58492Y154015D01*
X58571Y153955D01*
X58648Y153892D01*
X58722Y153826D01*
X58794Y153757D01*
X58889Y153659D01*
X58981Y153559D01*
X59071Y153456D01*
X59157Y153351D01*
X59240Y153243D01*
X59321Y153133D01*
X59398Y153021D01*
X59472Y152907D01*
X59543Y152790D01*
X59611Y152672D01*
X59675Y152552D01*
X59736Y152430D01*
X59793Y152307D01*
X59847Y152182D01*
X59898Y152055D01*
X59945Y151927D01*
X59988Y151798D01*
X60028Y151668D01*
X60064Y151537D01*
X60096Y151404D01*
X60125Y151271D01*
X60150Y151137D01*
X60171Y151003D01*
X54434Y151232D02*
X54410Y151331D01*
X54391Y151430D01*
X54375Y151530D01*
X54363Y151631D01*
X54355Y151732D01*
X54351Y151834D01*
X54350Y151935D01*
X54354Y152036D01*
X54361Y152137D01*
X54373Y152238D01*
X54388Y152338D01*
X54407Y152438D01*
X54430Y152537D01*
X54457Y152635D01*
X54487Y152731D01*
X54521Y152827D01*
X54559Y152921D01*
X54600Y153014D01*
X54645Y153104D01*
X54694Y153194D01*
X54745Y153281D01*
X54800Y153366D01*
X54859Y153449D01*
X54920Y153530D01*
X54985Y153608D01*
X55052Y153684D01*
X55122Y153757D01*
X55581Y147331D02*
X55605Y147232D01*
X55624Y147133D01*
X55640Y147033D01*
X55652Y146932D01*
X55660Y146831D01*
X55664Y146729D01*
X55665Y146628D01*
X55661Y146527D01*
X55654Y146426D01*
X55642Y146325D01*
X55627Y146225D01*
X55608Y146125D01*
X55585Y146026D01*
X55558Y145928D01*
X55528Y145832D01*
X55494Y145736D01*
X55456Y145642D01*
X55415Y145549D01*
X55370Y145459D01*
X55321Y145369D01*
X55270Y145282D01*
X55215Y145197D01*
X55156Y145114D01*
X55095Y145033D01*
X55030Y144955D01*
X54963Y144879D01*
X54893Y144806D01*
X55581Y147331D02*
X54434Y151232D01*
X62706Y146174D02*
X66836Y145715D01*
X58575Y137453D01*
X56280Y139748D02*
X60870Y135158D01*
X205754Y178594D02*
X207590Y176758D01*
X205754Y178594D02*
X205685Y178666D01*
X205619Y178740D01*
X205556Y178817D01*
X205496Y178896D01*
X205438Y178977D01*
X205384Y179061D01*
X205334Y179146D01*
X205286Y179234D01*
X205242Y179323D01*
X205201Y179414D01*
X205164Y179506D01*
X205130Y179599D01*
X205100Y179694D01*
X205074Y179790D01*
X205051Y179887D01*
X205032Y179985D01*
X205017Y180083D01*
X205006Y180182D01*
X204998Y180281D01*
X204994Y180380D01*
X204994Y180480D01*
X204998Y180579D01*
X205006Y180678D01*
X205017Y180777D01*
X205032Y180875D01*
X205051Y180973D01*
X205074Y181070D01*
X205100Y181166D01*
X205130Y181261D01*
X205164Y181354D01*
X205201Y181446D01*
X205242Y181537D01*
X205286Y181626D01*
X205334Y181714D01*
X205384Y181799D01*
X205438Y181883D01*
X205496Y181964D01*
X205556Y182043D01*
X205619Y182120D01*
X205685Y182194D01*
X205754Y182266D01*
X210344Y186856D01*
X210415Y186925D01*
X210490Y186992D01*
X210566Y187055D01*
X210645Y187115D01*
X210727Y187172D01*
X210810Y187226D01*
X210896Y187277D01*
X210983Y187325D01*
X211072Y187369D01*
X211163Y187410D01*
X211255Y187447D01*
X211349Y187481D01*
X211444Y187511D01*
X211540Y187537D01*
X211637Y187560D01*
X211734Y187578D01*
X211833Y187594D01*
X211932Y187605D01*
X212031Y187613D01*
X212130Y187617D01*
X212230Y187617D01*
X212329Y187613D01*
X212428Y187605D01*
X212527Y187594D01*
X212625Y187579D01*
X212723Y187560D01*
X212820Y187537D01*
X212916Y187511D01*
X213011Y187481D01*
X213104Y187447D01*
X213197Y187410D01*
X213288Y187369D01*
X213377Y187325D01*
X213464Y187277D01*
X213550Y187227D01*
X213633Y187172D01*
X213714Y187115D01*
X213794Y187055D01*
X213870Y186992D01*
X213945Y186925D01*
X214016Y186856D01*
X215852Y185020D01*
X216833Y171187D02*
X216761Y171118D01*
X216687Y171052D01*
X216610Y170989D01*
X216531Y170929D01*
X216450Y170871D01*
X216366Y170817D01*
X216281Y170767D01*
X216193Y170719D01*
X216104Y170675D01*
X216013Y170634D01*
X215921Y170597D01*
X215828Y170563D01*
X215733Y170533D01*
X215637Y170507D01*
X215540Y170484D01*
X215442Y170465D01*
X215344Y170450D01*
X215245Y170439D01*
X215146Y170431D01*
X215047Y170427D01*
X214947Y170427D01*
X214848Y170431D01*
X214749Y170439D01*
X214650Y170450D01*
X214552Y170465D01*
X214454Y170484D01*
X214357Y170507D01*
X214261Y170533D01*
X214166Y170563D01*
X214073Y170597D01*
X213981Y170634D01*
X213890Y170675D01*
X213801Y170719D01*
X213713Y170767D01*
X213628Y170817D01*
X213544Y170871D01*
X213463Y170929D01*
X213384Y170989D01*
X213307Y171052D01*
X213233Y171118D01*
X213161Y171187D01*
X213161Y171188D02*
X213061Y171291D01*
X212963Y171397D01*
X212868Y171506D01*
X212775Y171617D01*
X212686Y171730D01*
X212600Y171846D01*
X212517Y171964D01*
X212437Y172084D01*
X212360Y172206D01*
X212286Y172330D01*
X212216Y172456D01*
X212149Y172584D01*
X212085Y172714D01*
X212025Y172845D01*
X211968Y172978D01*
X211915Y173112D01*
X211865Y173247D01*
X211819Y173384D01*
X211777Y173522D01*
X211738Y173661D01*
X211703Y173801D01*
X211671Y173942D01*
X211644Y174084D01*
X211620Y174226D01*
X211599Y174369D01*
X211583Y174512D01*
X211570Y174656D01*
X211561Y174800D01*
X211556Y174944D01*
X211555Y175089D01*
X217063Y180137D02*
X217135Y180206D01*
X217209Y180272D01*
X217286Y180335D01*
X217365Y180395D01*
X217446Y180453D01*
X217530Y180507D01*
X217615Y180557D01*
X217703Y180605D01*
X217792Y180649D01*
X217883Y180690D01*
X217975Y180727D01*
X218068Y180761D01*
X218163Y180791D01*
X218259Y180817D01*
X218356Y180840D01*
X218454Y180859D01*
X218552Y180874D01*
X218651Y180885D01*
X218750Y180893D01*
X218849Y180897D01*
X218949Y180897D01*
X219048Y180893D01*
X219147Y180885D01*
X219246Y180874D01*
X219344Y180859D01*
X219442Y180840D01*
X219539Y180817D01*
X219635Y180791D01*
X219730Y180761D01*
X219823Y180727D01*
X219915Y180690D01*
X220006Y180649D01*
X220095Y180605D01*
X220183Y180557D01*
X220268Y180507D01*
X220352Y180453D01*
X220433Y180395D01*
X220512Y180335D01*
X220589Y180272D01*
X220663Y180206D01*
X220735Y180137D01*
X220735Y180138D02*
X220830Y180040D01*
X220922Y179940D01*
X221012Y179837D01*
X221098Y179732D01*
X221181Y179624D01*
X221262Y179514D01*
X221339Y179402D01*
X221413Y179288D01*
X221484Y179171D01*
X221552Y179053D01*
X221616Y178933D01*
X221677Y178811D01*
X221734Y178688D01*
X221788Y178563D01*
X221839Y178436D01*
X221886Y178308D01*
X221929Y178179D01*
X221969Y178049D01*
X222005Y177918D01*
X222037Y177785D01*
X222066Y177652D01*
X222091Y177518D01*
X222112Y177384D01*
X216375Y177613D02*
X216351Y177712D01*
X216332Y177811D01*
X216316Y177911D01*
X216304Y178012D01*
X216296Y178113D01*
X216292Y178215D01*
X216291Y178316D01*
X216295Y178417D01*
X216302Y178518D01*
X216314Y178619D01*
X216329Y178719D01*
X216348Y178819D01*
X216371Y178918D01*
X216398Y179016D01*
X216428Y179112D01*
X216462Y179208D01*
X216500Y179302D01*
X216541Y179395D01*
X216586Y179485D01*
X216635Y179575D01*
X216686Y179662D01*
X216741Y179747D01*
X216800Y179830D01*
X216861Y179911D01*
X216926Y179989D01*
X216993Y180065D01*
X217063Y180138D01*
X217522Y173712D02*
X217546Y173613D01*
X217565Y173514D01*
X217581Y173414D01*
X217593Y173313D01*
X217601Y173212D01*
X217605Y173110D01*
X217606Y173009D01*
X217602Y172908D01*
X217595Y172807D01*
X217583Y172706D01*
X217568Y172606D01*
X217549Y172506D01*
X217526Y172407D01*
X217499Y172309D01*
X217469Y172213D01*
X217435Y172117D01*
X217397Y172023D01*
X217356Y171930D01*
X217311Y171840D01*
X217262Y171750D01*
X217211Y171663D01*
X217156Y171578D01*
X217097Y171495D01*
X217036Y171414D01*
X216971Y171336D01*
X216904Y171260D01*
X216834Y171187D01*
X217522Y173711D02*
X216374Y177613D01*
X229006Y171865D02*
X229081Y171789D01*
X229152Y171709D01*
X229220Y171627D01*
X229285Y171543D01*
X229347Y171456D01*
X229406Y171367D01*
X229462Y171276D01*
X229514Y171183D01*
X229563Y171088D01*
X229608Y170991D01*
X229650Y170893D01*
X229688Y170793D01*
X229722Y170692D01*
X229753Y170590D01*
X229780Y170487D01*
X229803Y170383D01*
X229823Y170278D01*
X229838Y170172D01*
X229850Y170066D01*
X229858Y169960D01*
X229862Y169853D01*
X229862Y169747D01*
X229858Y169640D01*
X229850Y169534D01*
X229838Y169428D01*
X229823Y169322D01*
X229803Y169217D01*
X229780Y169113D01*
X229753Y169010D01*
X229722Y168908D01*
X229688Y168807D01*
X229650Y168707D01*
X229608Y168609D01*
X229563Y168512D01*
X229514Y168417D01*
X229462Y168324D01*
X229406Y168233D01*
X229347Y168144D01*
X229285Y168057D01*
X229220Y167973D01*
X229152Y167891D01*
X229081Y167811D01*
X229006Y167735D01*
X229007Y171866D02*
X228920Y171950D01*
X228830Y172031D01*
X228738Y172110D01*
X228643Y172185D01*
X228546Y172257D01*
X228447Y172327D01*
X228345Y172392D01*
X228242Y172455D01*
X228136Y172514D01*
X228029Y172570D01*
X227920Y172622D01*
X227809Y172671D01*
X227697Y172716D01*
X227583Y172758D01*
X227468Y172795D01*
X227352Y172830D01*
X227235Y172860D01*
X227117Y172886D01*
X226998Y172909D01*
X226878Y172928D01*
X226758Y172943D01*
X226638Y172954D01*
X226517Y172961D01*
X226396Y172965D01*
X226275Y172964D01*
X226154Y172960D01*
X226033Y172951D01*
X225913Y172939D01*
X225793Y172923D01*
X225674Y172903D01*
X225555Y172879D01*
X225437Y172852D01*
X225320Y172820D01*
X225205Y172785D01*
X225090Y172746D01*
X224977Y172704D01*
X224865Y172657D01*
X224755Y172608D01*
X224646Y172554D01*
X226712Y166816D02*
X226822Y166815D01*
X226933Y166818D01*
X227043Y166825D01*
X227153Y166836D01*
X227262Y166851D01*
X227371Y166870D01*
X227479Y166892D01*
X227587Y166918D01*
X227693Y166948D01*
X227798Y166982D01*
X227902Y167019D01*
X228005Y167060D01*
X228106Y167105D01*
X228205Y167153D01*
X228303Y167205D01*
X228398Y167260D01*
X228492Y167318D01*
X228584Y167380D01*
X228673Y167445D01*
X228761Y167512D01*
X228845Y167583D01*
X228927Y167657D01*
X229007Y167734D01*
X226712Y166817D02*
X218220Y166128D01*
X222810Y161538D01*
X182190Y278358D02*
X180354Y280194D01*
X180285Y280266D01*
X180219Y280340D01*
X180156Y280417D01*
X180096Y280496D01*
X180038Y280577D01*
X179984Y280661D01*
X179934Y280746D01*
X179886Y280834D01*
X179842Y280923D01*
X179801Y281014D01*
X179764Y281106D01*
X179730Y281199D01*
X179700Y281294D01*
X179674Y281390D01*
X179651Y281487D01*
X179632Y281585D01*
X179617Y281683D01*
X179606Y281782D01*
X179598Y281881D01*
X179594Y281980D01*
X179594Y282080D01*
X179598Y282179D01*
X179606Y282278D01*
X179617Y282377D01*
X179632Y282475D01*
X179651Y282573D01*
X179674Y282670D01*
X179700Y282766D01*
X179730Y282861D01*
X179764Y282954D01*
X179801Y283046D01*
X179842Y283137D01*
X179886Y283226D01*
X179934Y283314D01*
X179984Y283399D01*
X180038Y283483D01*
X180096Y283564D01*
X180156Y283643D01*
X180219Y283720D01*
X180285Y283794D01*
X180354Y283866D01*
X184944Y288456D01*
X185015Y288525D01*
X185090Y288592D01*
X185166Y288655D01*
X185245Y288715D01*
X185327Y288772D01*
X185410Y288826D01*
X185496Y288877D01*
X185583Y288925D01*
X185672Y288969D01*
X185763Y289010D01*
X185855Y289047D01*
X185949Y289081D01*
X186044Y289111D01*
X186140Y289137D01*
X186237Y289160D01*
X186334Y289178D01*
X186433Y289194D01*
X186532Y289205D01*
X186631Y289213D01*
X186730Y289217D01*
X186830Y289217D01*
X186929Y289213D01*
X187028Y289205D01*
X187127Y289194D01*
X187225Y289179D01*
X187323Y289160D01*
X187420Y289137D01*
X187516Y289111D01*
X187611Y289081D01*
X187704Y289047D01*
X187797Y289010D01*
X187888Y288969D01*
X187977Y288925D01*
X188064Y288877D01*
X188150Y288827D01*
X188233Y288772D01*
X188314Y288715D01*
X188394Y288655D01*
X188470Y288592D01*
X188545Y288525D01*
X188616Y288456D01*
X190452Y286620D01*
X191433Y272787D02*
X191361Y272718D01*
X191287Y272652D01*
X191210Y272589D01*
X191131Y272529D01*
X191050Y272471D01*
X190966Y272417D01*
X190881Y272367D01*
X190793Y272319D01*
X190704Y272275D01*
X190613Y272234D01*
X190521Y272197D01*
X190428Y272163D01*
X190333Y272133D01*
X190237Y272107D01*
X190140Y272084D01*
X190042Y272065D01*
X189944Y272050D01*
X189845Y272039D01*
X189746Y272031D01*
X189647Y272027D01*
X189547Y272027D01*
X189448Y272031D01*
X189349Y272039D01*
X189250Y272050D01*
X189152Y272065D01*
X189054Y272084D01*
X188957Y272107D01*
X188861Y272133D01*
X188766Y272163D01*
X188673Y272197D01*
X188581Y272234D01*
X188490Y272275D01*
X188401Y272319D01*
X188313Y272367D01*
X188228Y272417D01*
X188144Y272471D01*
X188063Y272529D01*
X187984Y272589D01*
X187907Y272652D01*
X187833Y272718D01*
X187761Y272787D01*
X187761Y272788D02*
X187661Y272891D01*
X187563Y272997D01*
X187468Y273106D01*
X187375Y273217D01*
X187286Y273330D01*
X187200Y273446D01*
X187117Y273564D01*
X187037Y273684D01*
X186960Y273806D01*
X186886Y273930D01*
X186816Y274056D01*
X186749Y274184D01*
X186685Y274314D01*
X186625Y274445D01*
X186568Y274578D01*
X186515Y274712D01*
X186465Y274847D01*
X186419Y274984D01*
X186377Y275122D01*
X186338Y275261D01*
X186303Y275401D01*
X186271Y275542D01*
X186244Y275684D01*
X186220Y275826D01*
X186199Y275969D01*
X186183Y276112D01*
X186170Y276256D01*
X186161Y276400D01*
X186156Y276544D01*
X186155Y276689D01*
X191663Y281737D02*
X191735Y281806D01*
X191809Y281872D01*
X191886Y281935D01*
X191965Y281995D01*
X192046Y282053D01*
X192130Y282107D01*
X192215Y282157D01*
X192303Y282205D01*
X192392Y282249D01*
X192483Y282290D01*
X192575Y282327D01*
X192668Y282361D01*
X192763Y282391D01*
X192859Y282417D01*
X192956Y282440D01*
X193054Y282459D01*
X193152Y282474D01*
X193251Y282485D01*
X193350Y282493D01*
X193449Y282497D01*
X193549Y282497D01*
X193648Y282493D01*
X193747Y282485D01*
X193846Y282474D01*
X193944Y282459D01*
X194042Y282440D01*
X194139Y282417D01*
X194235Y282391D01*
X194330Y282361D01*
X194423Y282327D01*
X194515Y282290D01*
X194606Y282249D01*
X194695Y282205D01*
X194783Y282157D01*
X194868Y282107D01*
X194952Y282053D01*
X195033Y281995D01*
X195112Y281935D01*
X195189Y281872D01*
X195263Y281806D01*
X195335Y281737D01*
X195335Y281738D02*
X195430Y281640D01*
X195522Y281540D01*
X195612Y281437D01*
X195698Y281332D01*
X195781Y281224D01*
X195862Y281114D01*
X195939Y281002D01*
X196013Y280888D01*
X196084Y280771D01*
X196152Y280653D01*
X196216Y280533D01*
X196277Y280411D01*
X196334Y280288D01*
X196388Y280163D01*
X196439Y280036D01*
X196486Y279908D01*
X196529Y279779D01*
X196569Y279649D01*
X196605Y279518D01*
X196637Y279385D01*
X196666Y279252D01*
X196691Y279118D01*
X196712Y278984D01*
X190975Y279213D02*
X190951Y279312D01*
X190932Y279411D01*
X190916Y279511D01*
X190904Y279612D01*
X190896Y279713D01*
X190892Y279815D01*
X190891Y279916D01*
X190895Y280017D01*
X190902Y280118D01*
X190914Y280219D01*
X190929Y280319D01*
X190948Y280419D01*
X190971Y280518D01*
X190998Y280616D01*
X191028Y280712D01*
X191062Y280808D01*
X191100Y280902D01*
X191141Y280995D01*
X191186Y281085D01*
X191235Y281175D01*
X191286Y281262D01*
X191341Y281347D01*
X191400Y281430D01*
X191461Y281511D01*
X191526Y281589D01*
X191593Y281665D01*
X191663Y281738D01*
X192122Y275312D02*
X192146Y275213D01*
X192165Y275114D01*
X192181Y275014D01*
X192193Y274913D01*
X192201Y274812D01*
X192205Y274710D01*
X192206Y274609D01*
X192202Y274508D01*
X192195Y274407D01*
X192183Y274306D01*
X192168Y274206D01*
X192149Y274106D01*
X192126Y274007D01*
X192099Y273909D01*
X192069Y273813D01*
X192035Y273717D01*
X191997Y273623D01*
X191956Y273530D01*
X191911Y273440D01*
X191862Y273350D01*
X191811Y273263D01*
X191756Y273178D01*
X191697Y273095D01*
X191636Y273014D01*
X191571Y272936D01*
X191504Y272860D01*
X191434Y272787D01*
X192122Y275311D02*
X190974Y279213D01*
X192820Y267728D02*
X195115Y265433D01*
X195196Y265354D01*
X195280Y265278D01*
X195367Y265205D01*
X195456Y265136D01*
X195548Y265069D01*
X195642Y265006D01*
X195738Y264946D01*
X195836Y264889D01*
X195936Y264836D01*
X196038Y264786D01*
X196142Y264740D01*
X196247Y264698D01*
X196353Y264659D01*
X196461Y264624D01*
X196570Y264593D01*
X196680Y264565D01*
X196791Y264542D01*
X196902Y264522D01*
X197014Y264506D01*
X197127Y264494D01*
X197240Y264486D01*
X197353Y264482D01*
X197467Y264482D01*
X197580Y264486D01*
X197693Y264494D01*
X197806Y264506D01*
X197918Y264522D01*
X198029Y264542D01*
X198140Y264565D01*
X198250Y264593D01*
X198359Y264624D01*
X198467Y264659D01*
X198573Y264698D01*
X198678Y264740D01*
X198782Y264786D01*
X198884Y264836D01*
X198984Y264889D01*
X199082Y264946D01*
X199178Y265006D01*
X199272Y265069D01*
X199363Y265136D01*
X199453Y265205D01*
X199540Y265278D01*
X199624Y265354D01*
X199705Y265433D01*
X199784Y265514D01*
X199860Y265598D01*
X199933Y265685D01*
X200002Y265775D01*
X200069Y265866D01*
X200132Y265960D01*
X200192Y266056D01*
X200249Y266154D01*
X200302Y266254D01*
X200352Y266356D01*
X200398Y266460D01*
X200440Y266565D01*
X200479Y266671D01*
X200514Y266779D01*
X200545Y266888D01*
X200573Y266998D01*
X200596Y267109D01*
X200616Y267220D01*
X200632Y267332D01*
X200644Y267445D01*
X200652Y267558D01*
X200656Y267671D01*
X200656Y267785D01*
X200652Y267898D01*
X200644Y268011D01*
X200632Y268124D01*
X200616Y268236D01*
X200596Y268347D01*
X200573Y268458D01*
X200545Y268568D01*
X200514Y268677D01*
X200479Y268785D01*
X200440Y268891D01*
X200398Y268996D01*
X200352Y269100D01*
X200302Y269202D01*
X200249Y269302D01*
X200192Y269400D01*
X200132Y269496D01*
X200069Y269590D01*
X200002Y269682D01*
X199933Y269771D01*
X199860Y269858D01*
X199784Y269942D01*
X199705Y270023D01*
X203836Y273236D02*
X201082Y275990D01*
X203836Y273236D02*
X203905Y273163D01*
X203972Y273088D01*
X204036Y273010D01*
X204097Y272930D01*
X204155Y272847D01*
X204209Y272763D01*
X204261Y272676D01*
X204308Y272588D01*
X204353Y272497D01*
X204394Y272405D01*
X204431Y272311D01*
X204464Y272217D01*
X204494Y272120D01*
X204520Y272023D01*
X204542Y271925D01*
X204561Y271826D01*
X204575Y271726D01*
X204586Y271626D01*
X204593Y271526D01*
X204596Y271425D01*
X204595Y271324D01*
X204590Y271224D01*
X204581Y271124D01*
X204569Y271024D01*
X204552Y270924D01*
X204532Y270826D01*
X204508Y270728D01*
X204480Y270631D01*
X204448Y270536D01*
X204413Y270442D01*
X204374Y270349D01*
X204331Y270257D01*
X204285Y270168D01*
X204236Y270080D01*
X204183Y269995D01*
X204127Y269911D01*
X204067Y269830D01*
X204005Y269751D01*
X203939Y269674D01*
X203871Y269600D01*
X203800Y269529D01*
X203726Y269461D01*
X203649Y269395D01*
X203570Y269333D01*
X203489Y269273D01*
X203405Y269217D01*
X203320Y269164D01*
X203232Y269115D01*
X203143Y269069D01*
X203051Y269026D01*
X202958Y268987D01*
X202864Y268952D01*
X202769Y268920D01*
X202672Y268892D01*
X202574Y268868D01*
X202476Y268848D01*
X202376Y268831D01*
X202276Y268819D01*
X202176Y268810D01*
X202076Y268805D01*
X201975Y268804D01*
X201874Y268807D01*
X201774Y268814D01*
X201674Y268825D01*
X201574Y268839D01*
X201475Y268858D01*
X201377Y268880D01*
X201280Y268906D01*
X201183Y268936D01*
X201089Y268969D01*
X200995Y269006D01*
X200903Y269047D01*
X200812Y269092D01*
X200724Y269139D01*
X200637Y269191D01*
X200553Y269245D01*
X200470Y269303D01*
X200390Y269364D01*
X200312Y269428D01*
X200237Y269495D01*
X200164Y269564D01*
X198328Y271400D01*
X65522Y255200D02*
X63686Y253364D01*
X63614Y253295D01*
X63540Y253229D01*
X63463Y253166D01*
X63384Y253106D01*
X63303Y253048D01*
X63219Y252994D01*
X63134Y252944D01*
X63046Y252896D01*
X62957Y252852D01*
X62866Y252811D01*
X62774Y252774D01*
X62681Y252740D01*
X62586Y252710D01*
X62490Y252684D01*
X62393Y252661D01*
X62295Y252642D01*
X62197Y252627D01*
X62098Y252616D01*
X61999Y252608D01*
X61900Y252604D01*
X61800Y252604D01*
X61701Y252608D01*
X61602Y252616D01*
X61503Y252627D01*
X61405Y252642D01*
X61307Y252661D01*
X61210Y252684D01*
X61114Y252710D01*
X61019Y252740D01*
X60926Y252774D01*
X60834Y252811D01*
X60743Y252852D01*
X60654Y252896D01*
X60566Y252944D01*
X60481Y252994D01*
X60397Y253048D01*
X60316Y253106D01*
X60237Y253166D01*
X60160Y253229D01*
X60086Y253295D01*
X60014Y253364D01*
X55424Y257954D01*
X55355Y258025D01*
X55288Y258100D01*
X55225Y258176D01*
X55165Y258255D01*
X55108Y258337D01*
X55054Y258420D01*
X55003Y258506D01*
X54955Y258593D01*
X54911Y258682D01*
X54870Y258773D01*
X54833Y258865D01*
X54799Y258959D01*
X54769Y259054D01*
X54743Y259150D01*
X54720Y259247D01*
X54702Y259344D01*
X54686Y259443D01*
X54675Y259542D01*
X54667Y259641D01*
X54663Y259740D01*
X54663Y259840D01*
X54667Y259939D01*
X54675Y260038D01*
X54686Y260137D01*
X54701Y260235D01*
X54720Y260333D01*
X54743Y260430D01*
X54769Y260526D01*
X54799Y260621D01*
X54833Y260714D01*
X54870Y260807D01*
X54911Y260898D01*
X54955Y260987D01*
X55003Y261074D01*
X55053Y261160D01*
X55108Y261243D01*
X55165Y261324D01*
X55225Y261404D01*
X55288Y261480D01*
X55355Y261555D01*
X55424Y261626D01*
X57260Y263461D01*
X71093Y264443D02*
X71162Y264371D01*
X71228Y264297D01*
X71291Y264220D01*
X71351Y264141D01*
X71409Y264060D01*
X71463Y263976D01*
X71513Y263891D01*
X71561Y263803D01*
X71605Y263714D01*
X71646Y263623D01*
X71683Y263531D01*
X71717Y263438D01*
X71747Y263343D01*
X71773Y263247D01*
X71796Y263150D01*
X71815Y263052D01*
X71830Y262954D01*
X71841Y262855D01*
X71849Y262756D01*
X71853Y262657D01*
X71853Y262557D01*
X71849Y262458D01*
X71841Y262359D01*
X71830Y262260D01*
X71815Y262162D01*
X71796Y262064D01*
X71773Y261967D01*
X71747Y261871D01*
X71717Y261776D01*
X71683Y261683D01*
X71646Y261591D01*
X71605Y261500D01*
X71561Y261411D01*
X71513Y261323D01*
X71463Y261238D01*
X71409Y261154D01*
X71351Y261073D01*
X71291Y260994D01*
X71228Y260917D01*
X71162Y260843D01*
X71093Y260771D01*
X70990Y260671D01*
X70884Y260573D01*
X70775Y260478D01*
X70664Y260385D01*
X70551Y260296D01*
X70435Y260210D01*
X70317Y260127D01*
X70197Y260047D01*
X70075Y259970D01*
X69951Y259896D01*
X69825Y259826D01*
X69697Y259759D01*
X69567Y259695D01*
X69436Y259635D01*
X69303Y259578D01*
X69169Y259525D01*
X69034Y259475D01*
X68897Y259429D01*
X68759Y259387D01*
X68620Y259348D01*
X68480Y259313D01*
X68339Y259281D01*
X68197Y259254D01*
X68055Y259230D01*
X67912Y259209D01*
X67769Y259193D01*
X67625Y259180D01*
X67481Y259171D01*
X67337Y259166D01*
X67192Y259165D01*
X62143Y264672D02*
X62074Y264744D01*
X62008Y264818D01*
X61945Y264895D01*
X61885Y264974D01*
X61827Y265055D01*
X61773Y265139D01*
X61723Y265224D01*
X61675Y265312D01*
X61631Y265401D01*
X61590Y265492D01*
X61553Y265584D01*
X61519Y265677D01*
X61489Y265772D01*
X61463Y265868D01*
X61440Y265965D01*
X61421Y266063D01*
X61406Y266161D01*
X61395Y266260D01*
X61387Y266359D01*
X61383Y266458D01*
X61383Y266558D01*
X61387Y266657D01*
X61395Y266756D01*
X61406Y266855D01*
X61421Y266953D01*
X61440Y267051D01*
X61463Y267148D01*
X61489Y267244D01*
X61519Y267339D01*
X61553Y267432D01*
X61590Y267524D01*
X61631Y267615D01*
X61675Y267704D01*
X61723Y267792D01*
X61773Y267877D01*
X61827Y267961D01*
X61885Y268042D01*
X61945Y268121D01*
X62008Y268198D01*
X62074Y268272D01*
X62143Y268344D01*
X62241Y268439D01*
X62341Y268531D01*
X62444Y268621D01*
X62549Y268707D01*
X62657Y268790D01*
X62767Y268871D01*
X62879Y268948D01*
X62993Y269022D01*
X63110Y269093D01*
X63228Y269161D01*
X63348Y269225D01*
X63470Y269286D01*
X63593Y269343D01*
X63718Y269397D01*
X63845Y269448D01*
X63973Y269495D01*
X64102Y269538D01*
X64232Y269578D01*
X64363Y269614D01*
X64496Y269646D01*
X64629Y269675D01*
X64763Y269700D01*
X64897Y269721D01*
X64668Y263984D02*
X64569Y263960D01*
X64470Y263941D01*
X64370Y263925D01*
X64269Y263913D01*
X64168Y263905D01*
X64066Y263901D01*
X63965Y263900D01*
X63864Y263904D01*
X63763Y263911D01*
X63662Y263923D01*
X63562Y263938D01*
X63462Y263957D01*
X63363Y263980D01*
X63265Y264007D01*
X63169Y264037D01*
X63073Y264071D01*
X62979Y264109D01*
X62886Y264150D01*
X62796Y264195D01*
X62706Y264244D01*
X62619Y264295D01*
X62534Y264350D01*
X62451Y264409D01*
X62370Y264470D01*
X62292Y264535D01*
X62216Y264602D01*
X62143Y264672D01*
X68569Y265131D02*
X68668Y265155D01*
X68767Y265174D01*
X68867Y265190D01*
X68968Y265202D01*
X69069Y265210D01*
X69171Y265214D01*
X69272Y265215D01*
X69373Y265211D01*
X69474Y265204D01*
X69575Y265192D01*
X69675Y265177D01*
X69775Y265158D01*
X69874Y265135D01*
X69972Y265108D01*
X70068Y265078D01*
X70164Y265044D01*
X70258Y265006D01*
X70351Y264965D01*
X70441Y264920D01*
X70531Y264871D01*
X70618Y264820D01*
X70703Y264765D01*
X70786Y264706D01*
X70867Y264645D01*
X70945Y264580D01*
X71021Y264513D01*
X71094Y264443D01*
X68569Y265131D02*
X64667Y263984D01*
X74316Y267666D02*
X69726Y275927D01*
X74316Y267666D02*
X78906Y272256D01*
X75693Y272715D02*
X79365Y269043D01*
X222968Y199480D02*
X231230Y207742D01*
X233525Y205447D01*
X233604Y205366D01*
X233680Y205282D01*
X233753Y205195D01*
X233822Y205105D01*
X233889Y205014D01*
X233952Y204920D01*
X234012Y204824D01*
X234069Y204726D01*
X234122Y204626D01*
X234172Y204524D01*
X234218Y204420D01*
X234260Y204315D01*
X234299Y204209D01*
X234334Y204101D01*
X234365Y203992D01*
X234393Y203882D01*
X234416Y203771D01*
X234436Y203660D01*
X234452Y203548D01*
X234464Y203435D01*
X234472Y203322D01*
X234476Y203209D01*
X234476Y203095D01*
X234472Y202982D01*
X234464Y202869D01*
X234452Y202756D01*
X234436Y202644D01*
X234416Y202533D01*
X234393Y202422D01*
X234365Y202312D01*
X234334Y202203D01*
X234299Y202095D01*
X234260Y201989D01*
X234218Y201884D01*
X234172Y201780D01*
X234122Y201678D01*
X234069Y201578D01*
X234012Y201480D01*
X233952Y201384D01*
X233889Y201290D01*
X233822Y201199D01*
X233753Y201109D01*
X233680Y201022D01*
X233604Y200938D01*
X233525Y200857D01*
X233444Y200778D01*
X233360Y200702D01*
X233273Y200629D01*
X233183Y200560D01*
X233092Y200493D01*
X232998Y200430D01*
X232902Y200370D01*
X232804Y200313D01*
X232704Y200260D01*
X232602Y200210D01*
X232498Y200164D01*
X232393Y200122D01*
X232287Y200083D01*
X232179Y200048D01*
X232070Y200017D01*
X231960Y199989D01*
X231849Y199966D01*
X231738Y199946D01*
X231626Y199930D01*
X231513Y199918D01*
X231400Y199910D01*
X231287Y199906D01*
X231173Y199906D01*
X231060Y199910D01*
X230947Y199918D01*
X230834Y199930D01*
X230722Y199946D01*
X230611Y199966D01*
X230500Y199989D01*
X230390Y200017D01*
X230281Y200048D01*
X230173Y200083D01*
X230067Y200122D01*
X229962Y200164D01*
X229858Y200210D01*
X229756Y200260D01*
X229656Y200313D01*
X229558Y200370D01*
X229462Y200430D01*
X229368Y200493D01*
X229277Y200560D01*
X229187Y200629D01*
X229100Y200702D01*
X229016Y200778D01*
X228935Y200857D01*
X226640Y203152D01*
X229394Y200398D02*
X227558Y194890D01*
X237424Y197876D02*
X241555Y197417D01*
X233293Y189155D01*
X230998Y191450D02*
X235588Y186860D01*
X211358Y142330D02*
X219620Y134068D01*
X211358Y142330D02*
X213653Y144625D01*
X213734Y144704D01*
X213818Y144780D01*
X213905Y144853D01*
X213995Y144922D01*
X214086Y144989D01*
X214180Y145052D01*
X214276Y145112D01*
X214374Y145169D01*
X214474Y145222D01*
X214576Y145272D01*
X214680Y145318D01*
X214785Y145360D01*
X214891Y145399D01*
X214999Y145434D01*
X215108Y145465D01*
X215218Y145493D01*
X215329Y145516D01*
X215440Y145536D01*
X215552Y145552D01*
X215665Y145564D01*
X215778Y145572D01*
X215891Y145576D01*
X216005Y145576D01*
X216118Y145572D01*
X216231Y145564D01*
X216344Y145552D01*
X216456Y145536D01*
X216567Y145516D01*
X216678Y145493D01*
X216788Y145465D01*
X216897Y145434D01*
X217005Y145399D01*
X217111Y145360D01*
X217216Y145318D01*
X217320Y145272D01*
X217422Y145222D01*
X217522Y145169D01*
X217620Y145112D01*
X217716Y145052D01*
X217810Y144989D01*
X217901Y144922D01*
X217991Y144853D01*
X218078Y144780D01*
X218162Y144704D01*
X218243Y144625D01*
X218322Y144544D01*
X218398Y144460D01*
X218471Y144373D01*
X218540Y144283D01*
X218607Y144192D01*
X218670Y144098D01*
X218730Y144002D01*
X218787Y143904D01*
X218840Y143804D01*
X218890Y143702D01*
X218936Y143598D01*
X218978Y143493D01*
X219017Y143387D01*
X219052Y143279D01*
X219083Y143170D01*
X219111Y143060D01*
X219134Y142949D01*
X219154Y142838D01*
X219170Y142726D01*
X219182Y142613D01*
X219190Y142500D01*
X219194Y142387D01*
X219194Y142273D01*
X219190Y142160D01*
X219182Y142047D01*
X219170Y141934D01*
X219154Y141822D01*
X219134Y141711D01*
X219111Y141600D01*
X219083Y141490D01*
X219052Y141381D01*
X219017Y141273D01*
X218978Y141167D01*
X218936Y141062D01*
X218890Y140958D01*
X218840Y140856D01*
X218787Y140756D01*
X218730Y140658D01*
X218670Y140562D01*
X218607Y140468D01*
X218540Y140377D01*
X218471Y140287D01*
X218398Y140200D01*
X218322Y140116D01*
X218243Y140035D01*
X215948Y137740D01*
X218702Y140494D02*
X224210Y138658D01*
X227971Y142420D02*
X219709Y150682D01*
X222004Y152977D01*
X222085Y153056D01*
X222169Y153132D01*
X222256Y153205D01*
X222346Y153274D01*
X222437Y153341D01*
X222531Y153404D01*
X222627Y153464D01*
X222725Y153521D01*
X222825Y153574D01*
X222927Y153624D01*
X223031Y153670D01*
X223136Y153712D01*
X223242Y153751D01*
X223350Y153786D01*
X223459Y153817D01*
X223569Y153845D01*
X223680Y153868D01*
X223791Y153888D01*
X223903Y153904D01*
X224016Y153916D01*
X224129Y153924D01*
X224242Y153928D01*
X224356Y153928D01*
X224469Y153924D01*
X224582Y153916D01*
X224695Y153904D01*
X224807Y153888D01*
X224918Y153868D01*
X225029Y153845D01*
X225139Y153817D01*
X225248Y153786D01*
X225356Y153751D01*
X225462Y153712D01*
X225567Y153670D01*
X225671Y153624D01*
X225773Y153574D01*
X225873Y153521D01*
X225971Y153464D01*
X226067Y153404D01*
X226161Y153341D01*
X226252Y153274D01*
X226342Y153205D01*
X226429Y153132D01*
X226513Y153056D01*
X226594Y152977D01*
X226673Y152896D01*
X226749Y152812D01*
X226822Y152725D01*
X226891Y152635D01*
X226958Y152544D01*
X227021Y152450D01*
X227081Y152354D01*
X227138Y152256D01*
X227191Y152156D01*
X227241Y152054D01*
X227287Y151950D01*
X227329Y151845D01*
X227368Y151739D01*
X227403Y151631D01*
X227434Y151522D01*
X227462Y151412D01*
X227485Y151301D01*
X227505Y151190D01*
X227521Y151078D01*
X227533Y150965D01*
X227541Y150852D01*
X227545Y150739D01*
X227545Y150625D01*
X227541Y150512D01*
X227533Y150399D01*
X227521Y150286D01*
X227505Y150174D01*
X227485Y150063D01*
X227462Y149952D01*
X227434Y149842D01*
X227403Y149733D01*
X227368Y149625D01*
X227329Y149519D01*
X227287Y149414D01*
X227241Y149310D01*
X227191Y149208D01*
X227138Y149108D01*
X227081Y149010D01*
X227021Y148914D01*
X226958Y148820D01*
X226891Y148729D01*
X226822Y148639D01*
X226749Y148552D01*
X226673Y148468D01*
X226594Y148387D01*
X224299Y146092D01*
X227053Y148846D02*
X232561Y147010D01*
X229575Y156876D02*
X230034Y161007D01*
X238296Y152745D01*
X236001Y150450D02*
X240591Y155040D01*
X273558Y88392D02*
X273558Y76708D01*
X273558Y88392D02*
X276804Y88392D01*
X276917Y88390D01*
X277030Y88384D01*
X277143Y88374D01*
X277256Y88360D01*
X277368Y88343D01*
X277479Y88321D01*
X277589Y88296D01*
X277699Y88266D01*
X277807Y88233D01*
X277914Y88196D01*
X278020Y88156D01*
X278124Y88111D01*
X278227Y88063D01*
X278328Y88012D01*
X278427Y87957D01*
X278524Y87899D01*
X278619Y87837D01*
X278712Y87772D01*
X278802Y87704D01*
X278890Y87633D01*
X278976Y87558D01*
X279059Y87481D01*
X279139Y87401D01*
X279216Y87318D01*
X279291Y87232D01*
X279362Y87144D01*
X279430Y87054D01*
X279495Y86961D01*
X279557Y86866D01*
X279615Y86769D01*
X279670Y86670D01*
X279721Y86569D01*
X279769Y86466D01*
X279814Y86362D01*
X279854Y86256D01*
X279891Y86149D01*
X279924Y86041D01*
X279954Y85931D01*
X279979Y85821D01*
X280001Y85710D01*
X280018Y85598D01*
X280032Y85485D01*
X280042Y85372D01*
X280048Y85259D01*
X280050Y85146D01*
X280048Y85033D01*
X280042Y84920D01*
X280032Y84807D01*
X280018Y84694D01*
X280001Y84582D01*
X279979Y84471D01*
X279954Y84361D01*
X279924Y84251D01*
X279891Y84143D01*
X279854Y84036D01*
X279814Y83930D01*
X279769Y83826D01*
X279721Y83723D01*
X279670Y83622D01*
X279615Y83523D01*
X279557Y83426D01*
X279495Y83331D01*
X279430Y83238D01*
X279362Y83148D01*
X279291Y83060D01*
X279216Y82974D01*
X279139Y82891D01*
X279059Y82811D01*
X278976Y82734D01*
X278890Y82659D01*
X278802Y82588D01*
X278712Y82520D01*
X278619Y82455D01*
X278524Y82393D01*
X278427Y82335D01*
X278328Y82280D01*
X278227Y82229D01*
X278124Y82181D01*
X278020Y82136D01*
X277914Y82096D01*
X277807Y82059D01*
X277699Y82026D01*
X277589Y81996D01*
X277479Y81971D01*
X277368Y81949D01*
X277256Y81932D01*
X277143Y81918D01*
X277030Y81908D01*
X276917Y81902D01*
X276804Y81900D01*
X276804Y81901D02*
X273558Y81901D01*
X277453Y81901D02*
X280049Y76708D01*
X285369Y76708D02*
X285369Y88392D01*
X288615Y88392D01*
X288728Y88390D01*
X288841Y88384D01*
X288954Y88374D01*
X289067Y88360D01*
X289179Y88343D01*
X289290Y88321D01*
X289400Y88296D01*
X289510Y88266D01*
X289618Y88233D01*
X289725Y88196D01*
X289831Y88156D01*
X289935Y88111D01*
X290038Y88063D01*
X290139Y88012D01*
X290238Y87957D01*
X290335Y87899D01*
X290430Y87837D01*
X290523Y87772D01*
X290613Y87704D01*
X290701Y87633D01*
X290787Y87558D01*
X290870Y87481D01*
X290950Y87401D01*
X291027Y87318D01*
X291102Y87232D01*
X291173Y87144D01*
X291241Y87054D01*
X291306Y86961D01*
X291368Y86866D01*
X291426Y86769D01*
X291481Y86670D01*
X291532Y86569D01*
X291580Y86466D01*
X291625Y86362D01*
X291665Y86256D01*
X291702Y86149D01*
X291735Y86041D01*
X291765Y85931D01*
X291790Y85821D01*
X291812Y85710D01*
X291829Y85598D01*
X291843Y85485D01*
X291853Y85372D01*
X291859Y85259D01*
X291861Y85146D01*
X291859Y85033D01*
X291853Y84920D01*
X291843Y84807D01*
X291829Y84694D01*
X291812Y84582D01*
X291790Y84471D01*
X291765Y84361D01*
X291735Y84251D01*
X291702Y84143D01*
X291665Y84036D01*
X291625Y83930D01*
X291580Y83826D01*
X291532Y83723D01*
X291481Y83622D01*
X291426Y83523D01*
X291368Y83426D01*
X291306Y83331D01*
X291241Y83238D01*
X291173Y83148D01*
X291102Y83060D01*
X291027Y82974D01*
X290950Y82891D01*
X290870Y82811D01*
X290787Y82734D01*
X290701Y82659D01*
X290613Y82588D01*
X290523Y82520D01*
X290430Y82455D01*
X290335Y82393D01*
X290238Y82335D01*
X290139Y82280D01*
X290038Y82229D01*
X289935Y82181D01*
X289831Y82136D01*
X289725Y82096D01*
X289618Y82059D01*
X289510Y82026D01*
X289400Y81996D01*
X289290Y81971D01*
X289179Y81949D01*
X289067Y81932D01*
X288954Y81918D01*
X288841Y81908D01*
X288728Y81902D01*
X288615Y81900D01*
X288615Y81901D02*
X285369Y81901D01*
X289264Y81901D02*
X291860Y76708D01*
X303216Y85471D02*
X303214Y85578D01*
X303208Y85684D01*
X303198Y85790D01*
X303185Y85896D01*
X303167Y86002D01*
X303146Y86106D01*
X303121Y86210D01*
X303092Y86313D01*
X303060Y86414D01*
X303023Y86514D01*
X302983Y86613D01*
X302940Y86711D01*
X302893Y86807D01*
X302842Y86901D01*
X302788Y86993D01*
X302731Y87083D01*
X302671Y87171D01*
X302607Y87256D01*
X302540Y87339D01*
X302470Y87420D01*
X302398Y87498D01*
X302322Y87574D01*
X302244Y87646D01*
X302163Y87716D01*
X302080Y87783D01*
X301995Y87847D01*
X301907Y87907D01*
X301817Y87964D01*
X301725Y88018D01*
X301631Y88069D01*
X301535Y88116D01*
X301437Y88159D01*
X301338Y88199D01*
X301238Y88236D01*
X301137Y88268D01*
X301034Y88297D01*
X300930Y88322D01*
X300826Y88343D01*
X300720Y88361D01*
X300614Y88374D01*
X300508Y88384D01*
X300402Y88390D01*
X300295Y88392D01*
X300174Y88390D01*
X300053Y88384D01*
X299933Y88374D01*
X299812Y88361D01*
X299693Y88343D01*
X299573Y88322D01*
X299455Y88297D01*
X299338Y88268D01*
X299221Y88235D01*
X299106Y88199D01*
X298992Y88158D01*
X298879Y88115D01*
X298767Y88067D01*
X298658Y88016D01*
X298550Y87961D01*
X298443Y87903D01*
X298339Y87842D01*
X298237Y87777D01*
X298137Y87709D01*
X298039Y87638D01*
X297943Y87564D01*
X297850Y87487D01*
X297760Y87406D01*
X297672Y87323D01*
X297587Y87237D01*
X297504Y87148D01*
X297425Y87057D01*
X297348Y86963D01*
X297275Y86867D01*
X297205Y86769D01*
X297138Y86668D01*
X297074Y86565D01*
X297014Y86460D01*
X296957Y86353D01*
X296903Y86245D01*
X296853Y86135D01*
X296807Y86023D01*
X296764Y85910D01*
X296725Y85795D01*
X302243Y83199D02*
X302322Y83276D01*
X302398Y83357D01*
X302471Y83440D01*
X302541Y83525D01*
X302608Y83613D01*
X302672Y83703D01*
X302732Y83795D01*
X302789Y83890D01*
X302843Y83986D01*
X302894Y84084D01*
X302941Y84184D01*
X302985Y84286D01*
X303025Y84389D01*
X303061Y84493D01*
X303093Y84599D01*
X303122Y84705D01*
X303147Y84813D01*
X303169Y84921D01*
X303186Y85031D01*
X303200Y85140D01*
X303209Y85250D01*
X303215Y85361D01*
X303217Y85471D01*
X302243Y83199D02*
X296725Y76708D01*
X303216Y76708D01*
X248864Y89291D02*
X247028Y87455D01*
X246956Y87386D01*
X246882Y87320D01*
X246805Y87257D01*
X246726Y87197D01*
X246645Y87139D01*
X246561Y87085D01*
X246476Y87035D01*
X246388Y86987D01*
X246299Y86943D01*
X246208Y86902D01*
X246116Y86865D01*
X246023Y86831D01*
X245928Y86801D01*
X245832Y86775D01*
X245735Y86752D01*
X245637Y86733D01*
X245539Y86718D01*
X245440Y86707D01*
X245341Y86699D01*
X245242Y86695D01*
X245142Y86695D01*
X245043Y86699D01*
X244944Y86707D01*
X244845Y86718D01*
X244747Y86733D01*
X244649Y86752D01*
X244552Y86775D01*
X244456Y86801D01*
X244361Y86831D01*
X244268Y86865D01*
X244176Y86902D01*
X244085Y86943D01*
X243996Y86987D01*
X243908Y87035D01*
X243823Y87085D01*
X243739Y87139D01*
X243658Y87197D01*
X243579Y87257D01*
X243502Y87320D01*
X243428Y87386D01*
X243356Y87455D01*
X238766Y92045D01*
X238697Y92116D01*
X238630Y92191D01*
X238567Y92267D01*
X238507Y92346D01*
X238450Y92428D01*
X238396Y92511D01*
X238345Y92597D01*
X238297Y92684D01*
X238253Y92773D01*
X238212Y92864D01*
X238175Y92956D01*
X238141Y93050D01*
X238111Y93145D01*
X238085Y93241D01*
X238062Y93338D01*
X238044Y93435D01*
X238028Y93534D01*
X238017Y93633D01*
X238009Y93732D01*
X238005Y93831D01*
X238005Y93931D01*
X238009Y94030D01*
X238017Y94129D01*
X238028Y94228D01*
X238043Y94326D01*
X238062Y94424D01*
X238085Y94521D01*
X238111Y94617D01*
X238141Y94712D01*
X238175Y94805D01*
X238212Y94898D01*
X238253Y94989D01*
X238297Y95078D01*
X238345Y95165D01*
X238395Y95251D01*
X238450Y95334D01*
X238507Y95415D01*
X238567Y95495D01*
X238630Y95571D01*
X238697Y95646D01*
X238766Y95717D01*
X240602Y97553D01*
X244010Y100961D02*
X252272Y92700D01*
X244010Y100961D02*
X246305Y103256D01*
X246386Y103335D01*
X246470Y103411D01*
X246557Y103484D01*
X246647Y103553D01*
X246738Y103620D01*
X246832Y103683D01*
X246928Y103743D01*
X247026Y103800D01*
X247126Y103853D01*
X247228Y103903D01*
X247332Y103949D01*
X247437Y103991D01*
X247543Y104030D01*
X247651Y104065D01*
X247760Y104096D01*
X247870Y104124D01*
X247981Y104147D01*
X248092Y104167D01*
X248204Y104183D01*
X248317Y104195D01*
X248430Y104203D01*
X248543Y104207D01*
X248657Y104207D01*
X248770Y104203D01*
X248883Y104195D01*
X248996Y104183D01*
X249108Y104167D01*
X249219Y104147D01*
X249330Y104124D01*
X249440Y104096D01*
X249549Y104065D01*
X249657Y104030D01*
X249763Y103991D01*
X249868Y103949D01*
X249972Y103903D01*
X250074Y103853D01*
X250174Y103800D01*
X250272Y103743D01*
X250368Y103683D01*
X250462Y103620D01*
X250553Y103553D01*
X250643Y103484D01*
X250730Y103411D01*
X250814Y103335D01*
X250895Y103256D01*
X250974Y103175D01*
X251050Y103091D01*
X251123Y103004D01*
X251192Y102914D01*
X251259Y102823D01*
X251322Y102729D01*
X251382Y102633D01*
X251439Y102535D01*
X251492Y102435D01*
X251542Y102333D01*
X251588Y102229D01*
X251630Y102124D01*
X251669Y102018D01*
X251704Y101910D01*
X251735Y101801D01*
X251763Y101691D01*
X251786Y101580D01*
X251806Y101469D01*
X251822Y101357D01*
X251834Y101244D01*
X251842Y101131D01*
X251846Y101018D01*
X251846Y100904D01*
X251842Y100791D01*
X251834Y100678D01*
X251822Y100565D01*
X251806Y100453D01*
X251786Y100342D01*
X251763Y100231D01*
X251735Y100121D01*
X251704Y100012D01*
X251669Y99904D01*
X251630Y99798D01*
X251588Y99693D01*
X251542Y99589D01*
X251492Y99487D01*
X251439Y99387D01*
X251382Y99289D01*
X251322Y99193D01*
X251259Y99099D01*
X251192Y99008D01*
X251123Y98918D01*
X251050Y98831D01*
X250974Y98747D01*
X250895Y98666D01*
X248600Y96372D01*
X251354Y99125D02*
X256862Y97289D01*
X253876Y107156D02*
X254335Y111286D01*
X262597Y103025D01*
X260302Y100730D02*
X264892Y105320D01*
X117492Y204480D02*
X109230Y212742D01*
X116574Y203562D02*
X118410Y205398D01*
X110148Y213660D02*
X108312Y211824D01*
X123475Y210463D02*
X125311Y212299D01*
X123475Y210463D02*
X123403Y210394D01*
X123329Y210328D01*
X123252Y210265D01*
X123173Y210205D01*
X123092Y210147D01*
X123008Y210093D01*
X122923Y210043D01*
X122835Y209995D01*
X122746Y209951D01*
X122655Y209910D01*
X122563Y209873D01*
X122470Y209839D01*
X122375Y209809D01*
X122279Y209783D01*
X122182Y209760D01*
X122084Y209741D01*
X121986Y209726D01*
X121887Y209715D01*
X121788Y209707D01*
X121689Y209703D01*
X121589Y209703D01*
X121490Y209707D01*
X121391Y209715D01*
X121292Y209726D01*
X121194Y209741D01*
X121096Y209760D01*
X120999Y209783D01*
X120903Y209809D01*
X120808Y209839D01*
X120715Y209873D01*
X120623Y209910D01*
X120532Y209951D01*
X120443Y209995D01*
X120355Y210043D01*
X120270Y210093D01*
X120186Y210147D01*
X120105Y210205D01*
X120026Y210265D01*
X119949Y210328D01*
X119875Y210394D01*
X119803Y210463D01*
X115213Y215053D01*
X115144Y215124D01*
X115077Y215199D01*
X115014Y215275D01*
X114954Y215354D01*
X114897Y215436D01*
X114843Y215519D01*
X114792Y215605D01*
X114744Y215692D01*
X114700Y215781D01*
X114659Y215872D01*
X114622Y215964D01*
X114588Y216058D01*
X114558Y216153D01*
X114532Y216249D01*
X114509Y216346D01*
X114491Y216443D01*
X114475Y216542D01*
X114464Y216641D01*
X114456Y216740D01*
X114452Y216839D01*
X114452Y216939D01*
X114456Y217038D01*
X114464Y217137D01*
X114475Y217236D01*
X114490Y217334D01*
X114509Y217432D01*
X114532Y217529D01*
X114558Y217625D01*
X114588Y217720D01*
X114622Y217813D01*
X114659Y217906D01*
X114700Y217997D01*
X114744Y218086D01*
X114792Y218173D01*
X114842Y218259D01*
X114897Y218342D01*
X114954Y218423D01*
X115014Y218503D01*
X115077Y218579D01*
X115144Y218654D01*
X115213Y218725D01*
X117049Y220561D01*
X121972Y221812D02*
X122431Y225943D01*
X130693Y217681D01*
X128398Y215386D02*
X132988Y219976D01*
D12*
X165198Y215900D02*
X120650Y171352D01*
X76102Y215900D01*
X120650Y260448D01*
X165198Y215900D01*
D13*
X177560Y224562D02*
X177562Y224632D01*
X177568Y224702D01*
X177578Y224771D01*
X177591Y224840D01*
X177609Y224908D01*
X177630Y224975D01*
X177655Y225040D01*
X177684Y225104D01*
X177716Y225167D01*
X177752Y225227D01*
X177791Y225285D01*
X177833Y225341D01*
X177878Y225395D01*
X177926Y225446D01*
X177977Y225494D01*
X178031Y225539D01*
X178087Y225581D01*
X178145Y225620D01*
X178205Y225656D01*
X178268Y225688D01*
X178332Y225717D01*
X178397Y225742D01*
X178464Y225763D01*
X178532Y225781D01*
X178601Y225794D01*
X178670Y225804D01*
X178740Y225810D01*
X178810Y225812D01*
X178880Y225810D01*
X178950Y225804D01*
X179019Y225794D01*
X179088Y225781D01*
X179156Y225763D01*
X179223Y225742D01*
X179288Y225717D01*
X179352Y225688D01*
X179415Y225656D01*
X179475Y225620D01*
X179533Y225581D01*
X179589Y225539D01*
X179643Y225494D01*
X179694Y225446D01*
X179742Y225395D01*
X179787Y225341D01*
X179829Y225285D01*
X179868Y225227D01*
X179904Y225167D01*
X179936Y225104D01*
X179965Y225040D01*
X179990Y224975D01*
X180011Y224908D01*
X180029Y224840D01*
X180042Y224771D01*
X180052Y224702D01*
X180058Y224632D01*
X180060Y224562D01*
X180058Y224492D01*
X180052Y224422D01*
X180042Y224353D01*
X180029Y224284D01*
X180011Y224216D01*
X179990Y224149D01*
X179965Y224084D01*
X179936Y224020D01*
X179904Y223957D01*
X179868Y223897D01*
X179829Y223839D01*
X179787Y223783D01*
X179742Y223729D01*
X179694Y223678D01*
X179643Y223630D01*
X179589Y223585D01*
X179533Y223543D01*
X179475Y223504D01*
X179415Y223468D01*
X179352Y223436D01*
X179288Y223407D01*
X179223Y223382D01*
X179156Y223361D01*
X179088Y223343D01*
X179019Y223330D01*
X178950Y223320D01*
X178880Y223314D01*
X178810Y223312D01*
X178740Y223314D01*
X178670Y223320D01*
X178601Y223330D01*
X178532Y223343D01*
X178464Y223361D01*
X178397Y223382D01*
X178332Y223407D01*
X178268Y223436D01*
X178205Y223468D01*
X178145Y223504D01*
X178087Y223543D01*
X178031Y223585D01*
X177977Y223630D01*
X177926Y223678D01*
X177878Y223729D01*
X177833Y223783D01*
X177791Y223839D01*
X177752Y223897D01*
X177716Y223957D01*
X177684Y224020D01*
X177655Y224084D01*
X177630Y224149D01*
X177609Y224216D01*
X177591Y224284D01*
X177578Y224353D01*
X177568Y224422D01*
X177562Y224492D01*
X177560Y224562D01*
D10*
X129392Y107442D02*
X129392Y95758D01*
X128094Y95758D02*
X130690Y95758D01*
X130690Y107442D02*
X128094Y107442D01*
X137854Y95758D02*
X140450Y95758D01*
X137854Y95758D02*
X137755Y95760D01*
X137655Y95766D01*
X137556Y95775D01*
X137458Y95788D01*
X137360Y95805D01*
X137262Y95826D01*
X137166Y95851D01*
X137071Y95879D01*
X136977Y95911D01*
X136884Y95946D01*
X136792Y95985D01*
X136702Y96028D01*
X136614Y96073D01*
X136527Y96123D01*
X136443Y96175D01*
X136360Y96231D01*
X136280Y96289D01*
X136202Y96351D01*
X136127Y96416D01*
X136054Y96484D01*
X135984Y96554D01*
X135916Y96627D01*
X135851Y96702D01*
X135789Y96780D01*
X135731Y96860D01*
X135675Y96943D01*
X135623Y97027D01*
X135573Y97114D01*
X135528Y97202D01*
X135485Y97292D01*
X135446Y97384D01*
X135411Y97477D01*
X135379Y97571D01*
X135351Y97666D01*
X135326Y97762D01*
X135305Y97860D01*
X135288Y97958D01*
X135275Y98056D01*
X135266Y98155D01*
X135260Y98255D01*
X135258Y98354D01*
X135257Y98354D02*
X135257Y104846D01*
X135258Y104846D02*
X135260Y104945D01*
X135266Y105045D01*
X135275Y105144D01*
X135288Y105242D01*
X135305Y105340D01*
X135326Y105438D01*
X135351Y105534D01*
X135379Y105629D01*
X135411Y105723D01*
X135446Y105816D01*
X135485Y105908D01*
X135528Y105998D01*
X135573Y106086D01*
X135623Y106173D01*
X135675Y106257D01*
X135731Y106340D01*
X135789Y106420D01*
X135851Y106498D01*
X135916Y106573D01*
X135984Y106646D01*
X136054Y106716D01*
X136127Y106784D01*
X136202Y106849D01*
X136280Y106911D01*
X136360Y106969D01*
X136443Y107025D01*
X136527Y107077D01*
X136614Y107127D01*
X136702Y107172D01*
X136792Y107215D01*
X136884Y107254D01*
X136976Y107289D01*
X137071Y107321D01*
X137166Y107349D01*
X137262Y107374D01*
X137360Y107395D01*
X137458Y107412D01*
X137556Y107425D01*
X137655Y107434D01*
X137755Y107440D01*
X137854Y107442D01*
X140450Y107442D01*
X144815Y95758D02*
X148061Y95758D01*
X148174Y95760D01*
X148287Y95766D01*
X148400Y95776D01*
X148513Y95790D01*
X148625Y95807D01*
X148736Y95829D01*
X148846Y95854D01*
X148956Y95884D01*
X149064Y95917D01*
X149171Y95954D01*
X149277Y95994D01*
X149381Y96039D01*
X149484Y96087D01*
X149585Y96138D01*
X149684Y96193D01*
X149781Y96251D01*
X149876Y96313D01*
X149969Y96378D01*
X150059Y96446D01*
X150147Y96517D01*
X150233Y96592D01*
X150316Y96669D01*
X150396Y96749D01*
X150473Y96832D01*
X150548Y96918D01*
X150619Y97006D01*
X150687Y97096D01*
X150752Y97189D01*
X150814Y97284D01*
X150872Y97381D01*
X150927Y97480D01*
X150978Y97581D01*
X151026Y97684D01*
X151071Y97788D01*
X151111Y97894D01*
X151148Y98001D01*
X151181Y98109D01*
X151211Y98219D01*
X151236Y98329D01*
X151258Y98440D01*
X151275Y98552D01*
X151289Y98665D01*
X151299Y98778D01*
X151305Y98891D01*
X151307Y99004D01*
X151305Y99117D01*
X151299Y99230D01*
X151289Y99343D01*
X151275Y99456D01*
X151258Y99568D01*
X151236Y99679D01*
X151211Y99789D01*
X151181Y99899D01*
X151148Y100007D01*
X151111Y100114D01*
X151071Y100220D01*
X151026Y100324D01*
X150978Y100427D01*
X150927Y100528D01*
X150872Y100627D01*
X150814Y100724D01*
X150752Y100819D01*
X150687Y100912D01*
X150619Y101002D01*
X150548Y101090D01*
X150473Y101176D01*
X150396Y101259D01*
X150316Y101339D01*
X150233Y101416D01*
X150147Y101491D01*
X150059Y101562D01*
X149969Y101630D01*
X149876Y101695D01*
X149781Y101757D01*
X149684Y101815D01*
X149585Y101870D01*
X149484Y101921D01*
X149381Y101969D01*
X149277Y102014D01*
X149171Y102054D01*
X149064Y102091D01*
X148956Y102124D01*
X148846Y102154D01*
X148736Y102179D01*
X148625Y102201D01*
X148513Y102218D01*
X148400Y102232D01*
X148287Y102242D01*
X148174Y102248D01*
X148061Y102250D01*
X148710Y107442D02*
X144815Y107442D01*
X148710Y107442D02*
X148811Y107440D01*
X148911Y107434D01*
X149011Y107424D01*
X149111Y107411D01*
X149210Y107393D01*
X149309Y107372D01*
X149406Y107347D01*
X149503Y107318D01*
X149598Y107285D01*
X149692Y107249D01*
X149784Y107209D01*
X149875Y107166D01*
X149964Y107119D01*
X150051Y107069D01*
X150137Y107015D01*
X150220Y106958D01*
X150300Y106898D01*
X150379Y106835D01*
X150455Y106768D01*
X150528Y106699D01*
X150598Y106627D01*
X150666Y106553D01*
X150731Y106476D01*
X150792Y106396D01*
X150851Y106314D01*
X150906Y106230D01*
X150958Y106144D01*
X151007Y106056D01*
X151052Y105966D01*
X151094Y105874D01*
X151132Y105781D01*
X151166Y105686D01*
X151197Y105591D01*
X151224Y105494D01*
X151247Y105396D01*
X151267Y105297D01*
X151282Y105197D01*
X151294Y105097D01*
X151302Y104997D01*
X151306Y104896D01*
X151306Y104796D01*
X151302Y104695D01*
X151294Y104595D01*
X151282Y104495D01*
X151267Y104395D01*
X151247Y104296D01*
X151224Y104198D01*
X151197Y104101D01*
X151166Y104006D01*
X151132Y103911D01*
X151094Y103818D01*
X151052Y103726D01*
X151007Y103636D01*
X150958Y103548D01*
X150906Y103462D01*
X150851Y103378D01*
X150792Y103296D01*
X150731Y103216D01*
X150666Y103139D01*
X150598Y103065D01*
X150528Y102993D01*
X150455Y102924D01*
X150379Y102857D01*
X150300Y102794D01*
X150220Y102734D01*
X150137Y102677D01*
X150051Y102623D01*
X149964Y102573D01*
X149875Y102526D01*
X149784Y102483D01*
X149692Y102443D01*
X149598Y102407D01*
X149503Y102374D01*
X149406Y102345D01*
X149309Y102320D01*
X149210Y102299D01*
X149111Y102281D01*
X149011Y102268D01*
X148911Y102258D01*
X148811Y102252D01*
X148710Y102250D01*
X148710Y102249D02*
X146114Y102249D01*
D12*
X142700Y87100D02*
X136700Y87100D01*
X136700Y116100D01*
X142700Y116100D01*
X142700Y87100D01*
X146200Y86600D02*
X158200Y86600D01*
D10*
X170942Y98354D02*
X170942Y100951D01*
X170942Y98354D02*
X170940Y98255D01*
X170934Y98155D01*
X170925Y98056D01*
X170912Y97958D01*
X170895Y97860D01*
X170874Y97762D01*
X170849Y97666D01*
X170821Y97571D01*
X170789Y97477D01*
X170754Y97384D01*
X170715Y97292D01*
X170672Y97202D01*
X170627Y97114D01*
X170577Y97027D01*
X170525Y96943D01*
X170469Y96860D01*
X170411Y96780D01*
X170349Y96702D01*
X170284Y96627D01*
X170216Y96554D01*
X170146Y96484D01*
X170073Y96416D01*
X169998Y96351D01*
X169920Y96289D01*
X169840Y96231D01*
X169757Y96175D01*
X169673Y96123D01*
X169586Y96073D01*
X169498Y96028D01*
X169408Y95985D01*
X169316Y95946D01*
X169223Y95911D01*
X169129Y95879D01*
X169034Y95851D01*
X168938Y95826D01*
X168840Y95805D01*
X168742Y95788D01*
X168644Y95775D01*
X168545Y95766D01*
X168445Y95760D01*
X168346Y95758D01*
X161854Y95758D01*
X161755Y95760D01*
X161655Y95766D01*
X161556Y95775D01*
X161458Y95788D01*
X161360Y95806D01*
X161262Y95826D01*
X161166Y95851D01*
X161070Y95879D01*
X160976Y95911D01*
X160883Y95946D01*
X160792Y95985D01*
X160702Y96028D01*
X160613Y96073D01*
X160527Y96123D01*
X160442Y96175D01*
X160360Y96231D01*
X160280Y96290D01*
X160202Y96351D01*
X160126Y96416D01*
X160053Y96484D01*
X159983Y96554D01*
X159915Y96627D01*
X159850Y96703D01*
X159789Y96781D01*
X159730Y96861D01*
X159674Y96943D01*
X159622Y97028D01*
X159573Y97114D01*
X159527Y97203D01*
X159484Y97293D01*
X159445Y97384D01*
X159410Y97477D01*
X159378Y97571D01*
X159350Y97667D01*
X159325Y97763D01*
X159305Y97861D01*
X159287Y97959D01*
X159274Y98057D01*
X159265Y98156D01*
X159259Y98255D01*
X159257Y98355D01*
X159258Y98354D02*
X159258Y100951D01*
X161854Y105316D02*
X159258Y108562D01*
X170942Y108562D01*
X170942Y111807D02*
X170942Y105316D01*
X94742Y100951D02*
X94742Y98354D01*
X94740Y98255D01*
X94734Y98155D01*
X94725Y98056D01*
X94712Y97958D01*
X94695Y97860D01*
X94674Y97762D01*
X94649Y97666D01*
X94621Y97571D01*
X94589Y97477D01*
X94554Y97384D01*
X94515Y97292D01*
X94472Y97202D01*
X94427Y97114D01*
X94377Y97027D01*
X94325Y96943D01*
X94269Y96860D01*
X94211Y96780D01*
X94149Y96702D01*
X94084Y96627D01*
X94016Y96554D01*
X93946Y96484D01*
X93873Y96416D01*
X93798Y96351D01*
X93720Y96289D01*
X93640Y96231D01*
X93557Y96175D01*
X93473Y96123D01*
X93386Y96073D01*
X93298Y96028D01*
X93208Y95985D01*
X93116Y95946D01*
X93023Y95911D01*
X92929Y95879D01*
X92834Y95851D01*
X92738Y95826D01*
X92640Y95805D01*
X92542Y95788D01*
X92444Y95775D01*
X92345Y95766D01*
X92245Y95760D01*
X92146Y95758D01*
X85654Y95758D01*
X85555Y95760D01*
X85455Y95766D01*
X85356Y95775D01*
X85258Y95788D01*
X85160Y95806D01*
X85062Y95826D01*
X84966Y95851D01*
X84870Y95879D01*
X84776Y95911D01*
X84683Y95946D01*
X84592Y95985D01*
X84502Y96028D01*
X84413Y96073D01*
X84327Y96123D01*
X84242Y96175D01*
X84160Y96231D01*
X84080Y96290D01*
X84002Y96351D01*
X83926Y96416D01*
X83853Y96484D01*
X83783Y96554D01*
X83715Y96627D01*
X83650Y96703D01*
X83589Y96781D01*
X83530Y96861D01*
X83474Y96943D01*
X83422Y97028D01*
X83373Y97114D01*
X83327Y97203D01*
X83284Y97293D01*
X83245Y97384D01*
X83210Y97477D01*
X83178Y97571D01*
X83150Y97667D01*
X83125Y97763D01*
X83105Y97861D01*
X83087Y97959D01*
X83074Y98057D01*
X83065Y98156D01*
X83059Y98255D01*
X83057Y98355D01*
X83058Y98354D02*
X83058Y100951D01*
X83058Y108886D02*
X83060Y108993D01*
X83066Y109099D01*
X83076Y109205D01*
X83089Y109311D01*
X83107Y109417D01*
X83128Y109521D01*
X83153Y109625D01*
X83182Y109728D01*
X83214Y109829D01*
X83251Y109929D01*
X83291Y110028D01*
X83334Y110126D01*
X83381Y110222D01*
X83432Y110316D01*
X83486Y110408D01*
X83543Y110498D01*
X83603Y110586D01*
X83667Y110671D01*
X83734Y110754D01*
X83804Y110835D01*
X83876Y110913D01*
X83952Y110989D01*
X84030Y111061D01*
X84111Y111131D01*
X84194Y111198D01*
X84279Y111262D01*
X84367Y111322D01*
X84457Y111379D01*
X84549Y111433D01*
X84643Y111484D01*
X84739Y111531D01*
X84837Y111574D01*
X84936Y111614D01*
X85036Y111651D01*
X85137Y111683D01*
X85240Y111712D01*
X85344Y111737D01*
X85448Y111758D01*
X85554Y111776D01*
X85660Y111789D01*
X85766Y111799D01*
X85872Y111805D01*
X85979Y111807D01*
X83058Y108886D02*
X83060Y108765D01*
X83066Y108644D01*
X83076Y108524D01*
X83089Y108403D01*
X83107Y108284D01*
X83128Y108164D01*
X83153Y108046D01*
X83182Y107929D01*
X83215Y107812D01*
X83251Y107697D01*
X83292Y107583D01*
X83335Y107470D01*
X83383Y107358D01*
X83434Y107249D01*
X83489Y107141D01*
X83547Y107034D01*
X83608Y106930D01*
X83673Y106828D01*
X83741Y106728D01*
X83812Y106630D01*
X83886Y106534D01*
X83963Y106441D01*
X84044Y106351D01*
X84127Y106263D01*
X84213Y106178D01*
X84302Y106095D01*
X84393Y106016D01*
X84487Y105939D01*
X84583Y105866D01*
X84681Y105796D01*
X84782Y105729D01*
X84885Y105665D01*
X84990Y105605D01*
X85097Y105547D01*
X85205Y105494D01*
X85315Y105444D01*
X85427Y105398D01*
X85540Y105355D01*
X85655Y105316D01*
X88251Y110833D02*
X88173Y110912D01*
X88093Y110988D01*
X88010Y111061D01*
X87924Y111131D01*
X87837Y111198D01*
X87746Y111262D01*
X87654Y111322D01*
X87560Y111380D01*
X87463Y111434D01*
X87365Y111484D01*
X87265Y111531D01*
X87164Y111575D01*
X87061Y111615D01*
X86956Y111651D01*
X86851Y111683D01*
X86744Y111712D01*
X86637Y111737D01*
X86528Y111759D01*
X86419Y111776D01*
X86310Y111790D01*
X86200Y111799D01*
X86089Y111805D01*
X85979Y111807D01*
X88251Y110834D02*
X94742Y105316D01*
X94742Y111807D01*
D14*
X66040Y50800D02*
X61595Y50800D01*
X71120Y50800D02*
X90805Y50800D01*
X90805Y38100D01*
X71120Y38100D01*
X66040Y38100D02*
X61595Y38100D01*
X61595Y50800D01*
D15*
X67183Y54864D02*
X64389Y63246D01*
X69977Y63246D02*
X67183Y54864D01*
X74303Y54864D02*
X74303Y63246D01*
X76632Y63246D01*
X76726Y63244D01*
X76819Y63238D01*
X76913Y63229D01*
X77005Y63216D01*
X77098Y63199D01*
X77189Y63178D01*
X77280Y63154D01*
X77369Y63126D01*
X77458Y63095D01*
X77544Y63060D01*
X77630Y63021D01*
X77714Y62979D01*
X77796Y62934D01*
X77876Y62886D01*
X77954Y62834D01*
X78031Y62779D01*
X78104Y62721D01*
X78176Y62661D01*
X78245Y62597D01*
X78311Y62531D01*
X78375Y62462D01*
X78435Y62390D01*
X78493Y62317D01*
X78548Y62240D01*
X78600Y62162D01*
X78648Y62082D01*
X78693Y62000D01*
X78735Y61916D01*
X78774Y61830D01*
X78809Y61744D01*
X78840Y61655D01*
X78868Y61566D01*
X78892Y61475D01*
X78913Y61384D01*
X78930Y61291D01*
X78943Y61199D01*
X78952Y61105D01*
X78958Y61012D01*
X78960Y60918D01*
X78960Y57192D01*
X78958Y57098D01*
X78952Y57005D01*
X78943Y56911D01*
X78930Y56819D01*
X78913Y56726D01*
X78892Y56635D01*
X78868Y56544D01*
X78840Y56455D01*
X78809Y56366D01*
X78774Y56280D01*
X78735Y56194D01*
X78693Y56110D01*
X78648Y56028D01*
X78600Y55948D01*
X78548Y55870D01*
X78493Y55793D01*
X78435Y55720D01*
X78375Y55648D01*
X78311Y55579D01*
X78245Y55513D01*
X78176Y55449D01*
X78104Y55389D01*
X78031Y55331D01*
X77954Y55276D01*
X77876Y55224D01*
X77796Y55176D01*
X77714Y55131D01*
X77630Y55089D01*
X77544Y55050D01*
X77458Y55015D01*
X77369Y54984D01*
X77280Y54956D01*
X77189Y54932D01*
X77098Y54911D01*
X77005Y54894D01*
X76913Y54881D01*
X76819Y54872D01*
X76726Y54866D01*
X76632Y54864D01*
X74303Y54864D01*
X83752Y61383D02*
X86081Y63246D01*
X86081Y54864D01*
X88409Y54864D02*
X83752Y54864D01*
D14*
X66040Y25400D02*
X61595Y25400D01*
X71120Y25400D02*
X90805Y25400D01*
X90805Y12700D01*
X71120Y12700D01*
X66040Y12700D02*
X61595Y12700D01*
X61595Y25400D01*
D15*
X67183Y29464D02*
X64389Y37846D01*
X69977Y37846D02*
X67183Y29464D01*
X74303Y29464D02*
X74303Y37846D01*
X76632Y37846D01*
X76726Y37844D01*
X76819Y37838D01*
X76913Y37829D01*
X77005Y37816D01*
X77098Y37799D01*
X77189Y37778D01*
X77280Y37754D01*
X77369Y37726D01*
X77458Y37695D01*
X77544Y37660D01*
X77630Y37621D01*
X77714Y37579D01*
X77796Y37534D01*
X77876Y37486D01*
X77954Y37434D01*
X78031Y37379D01*
X78104Y37321D01*
X78176Y37261D01*
X78245Y37197D01*
X78311Y37131D01*
X78375Y37062D01*
X78435Y36990D01*
X78493Y36917D01*
X78548Y36840D01*
X78600Y36762D01*
X78648Y36682D01*
X78693Y36600D01*
X78735Y36516D01*
X78774Y36430D01*
X78809Y36344D01*
X78840Y36255D01*
X78868Y36166D01*
X78892Y36075D01*
X78913Y35984D01*
X78930Y35891D01*
X78943Y35799D01*
X78952Y35705D01*
X78958Y35612D01*
X78960Y35518D01*
X78960Y31792D01*
X78958Y31698D01*
X78952Y31605D01*
X78943Y31511D01*
X78930Y31419D01*
X78913Y31326D01*
X78892Y31235D01*
X78868Y31144D01*
X78840Y31055D01*
X78809Y30966D01*
X78774Y30880D01*
X78735Y30794D01*
X78693Y30710D01*
X78648Y30628D01*
X78600Y30548D01*
X78548Y30470D01*
X78493Y30393D01*
X78435Y30320D01*
X78375Y30248D01*
X78311Y30179D01*
X78245Y30113D01*
X78176Y30049D01*
X78104Y29989D01*
X78031Y29931D01*
X77954Y29876D01*
X77876Y29824D01*
X77796Y29776D01*
X77714Y29731D01*
X77630Y29689D01*
X77544Y29650D01*
X77458Y29615D01*
X77369Y29584D01*
X77280Y29556D01*
X77189Y29532D01*
X77098Y29511D01*
X77005Y29494D01*
X76913Y29481D01*
X76819Y29472D01*
X76726Y29466D01*
X76632Y29464D01*
X74303Y29464D01*
X86313Y37847D02*
X86402Y37845D01*
X86491Y37839D01*
X86579Y37830D01*
X86667Y37817D01*
X86755Y37800D01*
X86841Y37779D01*
X86927Y37755D01*
X87011Y37727D01*
X87095Y37696D01*
X87176Y37661D01*
X87257Y37623D01*
X87335Y37581D01*
X87412Y37536D01*
X87487Y37488D01*
X87559Y37436D01*
X87630Y37382D01*
X87698Y37324D01*
X87763Y37264D01*
X87826Y37201D01*
X87886Y37136D01*
X87944Y37068D01*
X87998Y36997D01*
X88050Y36925D01*
X88098Y36850D01*
X88143Y36773D01*
X88185Y36695D01*
X88223Y36614D01*
X88258Y36533D01*
X88289Y36449D01*
X88317Y36365D01*
X88341Y36279D01*
X88362Y36193D01*
X88379Y36105D01*
X88392Y36017D01*
X88401Y35929D01*
X88407Y35840D01*
X88409Y35751D01*
X86313Y37846D02*
X86210Y37844D01*
X86108Y37838D01*
X86006Y37828D01*
X85904Y37815D01*
X85803Y37797D01*
X85703Y37776D01*
X85603Y37751D01*
X85505Y37722D01*
X85408Y37689D01*
X85312Y37653D01*
X85217Y37613D01*
X85124Y37569D01*
X85033Y37522D01*
X84944Y37472D01*
X84857Y37418D01*
X84771Y37361D01*
X84688Y37301D01*
X84608Y37237D01*
X84530Y37171D01*
X84454Y37101D01*
X84381Y37029D01*
X84311Y36954D01*
X84244Y36876D01*
X84180Y36796D01*
X84119Y36714D01*
X84061Y36629D01*
X84007Y36542D01*
X83955Y36453D01*
X83908Y36363D01*
X83863Y36270D01*
X83823Y36176D01*
X83785Y36080D01*
X83752Y35983D01*
X87710Y34121D02*
X87775Y34185D01*
X87837Y34252D01*
X87897Y34321D01*
X87953Y34393D01*
X88006Y34466D01*
X88057Y34542D01*
X88104Y34620D01*
X88148Y34700D01*
X88189Y34781D01*
X88227Y34864D01*
X88261Y34949D01*
X88292Y35035D01*
X88319Y35122D01*
X88343Y35210D01*
X88363Y35298D01*
X88380Y35388D01*
X88392Y35478D01*
X88402Y35569D01*
X88407Y35660D01*
X88409Y35751D01*
X87710Y34121D02*
X83752Y29464D01*
X88409Y29464D01*
D16*
X159350Y53900D02*
X159350Y3900D01*
X159350Y53900D02*
X234350Y53900D01*
X234350Y3900D01*
X159350Y3900D01*
D10*
X57658Y89408D02*
X57658Y101092D01*
X60904Y101092D01*
X61017Y101090D01*
X61130Y101084D01*
X61243Y101074D01*
X61356Y101060D01*
X61468Y101043D01*
X61579Y101021D01*
X61689Y100996D01*
X61799Y100966D01*
X61907Y100933D01*
X62014Y100896D01*
X62120Y100856D01*
X62224Y100811D01*
X62327Y100763D01*
X62428Y100712D01*
X62527Y100657D01*
X62624Y100599D01*
X62719Y100537D01*
X62812Y100472D01*
X62902Y100404D01*
X62990Y100333D01*
X63076Y100258D01*
X63159Y100181D01*
X63239Y100101D01*
X63316Y100018D01*
X63391Y99932D01*
X63462Y99844D01*
X63530Y99754D01*
X63595Y99661D01*
X63657Y99566D01*
X63715Y99469D01*
X63770Y99370D01*
X63821Y99269D01*
X63869Y99166D01*
X63914Y99062D01*
X63954Y98956D01*
X63991Y98849D01*
X64024Y98741D01*
X64054Y98631D01*
X64079Y98521D01*
X64101Y98410D01*
X64118Y98298D01*
X64132Y98185D01*
X64142Y98072D01*
X64148Y97959D01*
X64150Y97846D01*
X64148Y97733D01*
X64142Y97620D01*
X64132Y97507D01*
X64118Y97394D01*
X64101Y97282D01*
X64079Y97171D01*
X64054Y97061D01*
X64024Y96951D01*
X63991Y96843D01*
X63954Y96736D01*
X63914Y96630D01*
X63869Y96526D01*
X63821Y96423D01*
X63770Y96322D01*
X63715Y96223D01*
X63657Y96126D01*
X63595Y96031D01*
X63530Y95938D01*
X63462Y95848D01*
X63391Y95760D01*
X63316Y95674D01*
X63239Y95591D01*
X63159Y95511D01*
X63076Y95434D01*
X62990Y95359D01*
X62902Y95288D01*
X62812Y95220D01*
X62719Y95155D01*
X62624Y95093D01*
X62527Y95035D01*
X62428Y94980D01*
X62327Y94929D01*
X62224Y94881D01*
X62120Y94836D01*
X62014Y94796D01*
X61907Y94759D01*
X61799Y94726D01*
X61689Y94696D01*
X61579Y94671D01*
X61468Y94649D01*
X61356Y94632D01*
X61243Y94618D01*
X61130Y94608D01*
X61017Y94602D01*
X60904Y94600D01*
X60904Y94601D02*
X57658Y94601D01*
X61553Y94601D02*
X64149Y89408D01*
X69974Y89408D02*
X69974Y101092D01*
X68676Y89408D02*
X71272Y89408D01*
X71272Y101092D02*
X68676Y101092D01*
X75872Y98496D02*
X79118Y101092D01*
X79118Y89408D01*
X82363Y89408D02*
X75872Y89408D01*
X44637Y95758D02*
X44637Y107442D01*
X47882Y107442D01*
X47995Y107440D01*
X48108Y107434D01*
X48221Y107424D01*
X48334Y107410D01*
X48446Y107393D01*
X48557Y107371D01*
X48667Y107346D01*
X48777Y107316D01*
X48885Y107283D01*
X48992Y107246D01*
X49098Y107206D01*
X49202Y107161D01*
X49305Y107113D01*
X49406Y107062D01*
X49505Y107007D01*
X49602Y106949D01*
X49697Y106887D01*
X49790Y106822D01*
X49880Y106754D01*
X49968Y106683D01*
X50054Y106608D01*
X50137Y106531D01*
X50217Y106451D01*
X50294Y106368D01*
X50369Y106282D01*
X50440Y106194D01*
X50508Y106104D01*
X50573Y106011D01*
X50635Y105916D01*
X50693Y105819D01*
X50748Y105720D01*
X50799Y105619D01*
X50847Y105516D01*
X50892Y105412D01*
X50932Y105306D01*
X50969Y105199D01*
X51002Y105091D01*
X51032Y104981D01*
X51057Y104871D01*
X51079Y104760D01*
X51096Y104648D01*
X51110Y104535D01*
X51120Y104422D01*
X51126Y104309D01*
X51128Y104196D01*
X51126Y104083D01*
X51120Y103970D01*
X51110Y103857D01*
X51096Y103744D01*
X51079Y103632D01*
X51057Y103521D01*
X51032Y103411D01*
X51002Y103301D01*
X50969Y103193D01*
X50932Y103086D01*
X50892Y102980D01*
X50847Y102876D01*
X50799Y102773D01*
X50748Y102672D01*
X50693Y102573D01*
X50635Y102476D01*
X50573Y102381D01*
X50508Y102288D01*
X50440Y102198D01*
X50369Y102110D01*
X50294Y102024D01*
X50217Y101941D01*
X50137Y101861D01*
X50054Y101784D01*
X49968Y101709D01*
X49880Y101638D01*
X49790Y101570D01*
X49697Y101505D01*
X49602Y101443D01*
X49505Y101385D01*
X49406Y101330D01*
X49305Y101279D01*
X49202Y101231D01*
X49098Y101186D01*
X48992Y101146D01*
X48885Y101109D01*
X48777Y101076D01*
X48667Y101046D01*
X48557Y101021D01*
X48446Y100999D01*
X48334Y100982D01*
X48221Y100968D01*
X48108Y100958D01*
X47995Y100952D01*
X47882Y100950D01*
X47882Y100951D02*
X44637Y100951D01*
X48531Y100951D02*
X51128Y95758D01*
X56952Y95758D02*
X56952Y107442D01*
X55654Y95758D02*
X58251Y95758D01*
X58251Y107442D02*
X55654Y107442D01*
X66421Y107442D02*
X66528Y107440D01*
X66634Y107434D01*
X66740Y107424D01*
X66846Y107411D01*
X66952Y107393D01*
X67056Y107372D01*
X67160Y107347D01*
X67263Y107318D01*
X67364Y107286D01*
X67464Y107249D01*
X67563Y107209D01*
X67661Y107166D01*
X67757Y107119D01*
X67851Y107068D01*
X67943Y107014D01*
X68033Y106957D01*
X68121Y106897D01*
X68206Y106833D01*
X68289Y106766D01*
X68370Y106696D01*
X68448Y106624D01*
X68524Y106548D01*
X68596Y106470D01*
X68666Y106389D01*
X68733Y106306D01*
X68797Y106221D01*
X68857Y106133D01*
X68914Y106043D01*
X68968Y105951D01*
X69019Y105857D01*
X69066Y105761D01*
X69109Y105663D01*
X69149Y105564D01*
X69186Y105464D01*
X69218Y105363D01*
X69247Y105260D01*
X69272Y105156D01*
X69293Y105052D01*
X69311Y104946D01*
X69324Y104840D01*
X69334Y104734D01*
X69340Y104628D01*
X69342Y104521D01*
X66421Y107442D02*
X66300Y107440D01*
X66179Y107434D01*
X66059Y107424D01*
X65938Y107411D01*
X65819Y107393D01*
X65699Y107372D01*
X65581Y107347D01*
X65464Y107318D01*
X65347Y107285D01*
X65232Y107249D01*
X65118Y107208D01*
X65005Y107165D01*
X64893Y107117D01*
X64784Y107066D01*
X64676Y107011D01*
X64569Y106953D01*
X64465Y106892D01*
X64363Y106827D01*
X64263Y106759D01*
X64165Y106688D01*
X64069Y106614D01*
X63976Y106537D01*
X63886Y106456D01*
X63798Y106373D01*
X63713Y106287D01*
X63630Y106198D01*
X63551Y106107D01*
X63474Y106013D01*
X63401Y105917D01*
X63331Y105819D01*
X63264Y105718D01*
X63200Y105615D01*
X63140Y105510D01*
X63083Y105403D01*
X63029Y105295D01*
X62979Y105185D01*
X62933Y105073D01*
X62890Y104960D01*
X62851Y104845D01*
X68369Y102249D02*
X68448Y102326D01*
X68524Y102407D01*
X68597Y102490D01*
X68667Y102575D01*
X68734Y102663D01*
X68798Y102753D01*
X68858Y102845D01*
X68915Y102940D01*
X68969Y103036D01*
X69020Y103134D01*
X69067Y103234D01*
X69111Y103336D01*
X69151Y103439D01*
X69187Y103543D01*
X69219Y103649D01*
X69248Y103755D01*
X69273Y103863D01*
X69295Y103971D01*
X69312Y104081D01*
X69326Y104190D01*
X69335Y104300D01*
X69341Y104411D01*
X69343Y104521D01*
X68368Y102249D02*
X62851Y95758D01*
X69342Y95758D01*
M02*
